<?xml version='1.0' encoding='utf-8'?>
<svg xmlns="http://www.w3.org/2000/svg" viewBox="0 0 1498.41 1498.48"><defs><style>.cls-1{fill:#404040;}.cls-2{fill:#f88102;}.cls-3{fill:#c16807;}.cls-4{fill:#363636;}.cls-5{fill:#3b3937;}.cls-6{fill:#bdbdbd;}.cls-7{fill:#be6607;}.cls-8{fill:#929292;}.cls-9{fill:#96530b;}.cls-10{fill:#fdfdfd;}.cls-11{fill:#c26807;}.cls-12{fill:#e7e7e7;}.cls-13{fill:#da9e5f;}.cls-14{fill:#b37c41;}.cls-15{fill:#aeaeae;}.cls-16{fill:#e3e3e3;}</style></defs><title>orange clock</title><g id="Layer_2" data-name="Layer 2"><g id="Layer_1-2" data-name="Layer 1"><path class="cls-1" d="M749.59,0c412.88-.22,748.83,335.53,748.82,749.36,0,413.37-334.44,747.37-746,749.11C337.36,1500.22.7,1164.05,0,750.51-.69,338,333.64.21,749.59,0Z"/><path class="cls-2" d="M1464.87,882.63c-2.21,10.08-4.35,20.17-6.65,30.22-17.76,77.9-48,150.66-89.93,218.63a720.24,720.24,0,0,1-112.72,140.06Q1141.41,1382,991.69,1435.4a724.36,724.36,0,0,1-120.61,31.36c-18.3,3.13-36.73,5.33-55.23,7.07a749.83,749.83,0,0,1-86.09,2.76c-20.71-.46-41.36-2-62-4.25a724.1,724.1,0,0,1-353.9-140.22A725.37,725.37,0,0,1,27.07,838.69c-4.89-39.26-6.14-78.66-4.92-118.14a639.09,639.09,0,0,1,6-69.33,13,13,0,0,1,.52-1.79c8-42.71,21.8-83.65,38.23-123.77C75,506,84.25,486.93,93.87,468c3.39-6.67,7.25-13.1,10.67-19.76a4.83,4.83,0,0,1,1.94-2.23,2.43,2.43,0,0,1,2.93,1.43c.51,2.18-.77,3.86-1.72,5.57q-5.84,10.47-11.75,20.91c-4.26,7.47-2.89,12.62,4.6,16.83Q150.88,519,201.25,547.12l105,58.76q40,22.44,80.16,44.74a21.69,21.69,0,0,1,4.7,3.06,2.55,2.55,0,0,1,.4,1c.09,1.4-.51,2.69-.59,4.06a8.84,8.84,0,0,0,4.39,8.52c1.09.69,2.74.89,2.71,2.72-.43,1.2-1.54,1.58-2.55,2-3.48,1.6-5,4.38-4.87,8.11a8,8,0,0,0,5.49,7.73c5.46,2.18,11.16,3.6,16.77,5.3,32.61,9.87,65.15,19.95,97.79,29.71,2.87.86,5.65,2,8.55,2.72a31.17,31.17,0,0,1,6.32,2.77c11.67,6.74,23.48,13.23,35.24,19.8,32.25,18,64.4,36.23,96.78,54,4.38,2.4,6.54,5.19,6,10.33-.64,6.42,1.44,12.6,2.5,18.86,0,1.89-1.16,3.24-2.36,4.54Q650,850.8,636.61,866c-2.8,3.19-2.74,3.37.39,6.23,5,4.55,10,9.11,15,13.55,1.14,1,2.25,2.1,1.35,3.87-5.91,7.77-12.84,14.64-19.32,21.91-3.71,4.16-3.85,4.64.13,8.41,4.45,4.21,9.08,8.21,13.61,12.32,2.46,2.22,4.3,1.8,6.3-.49,7.22-8.29,14.69-16.34,22-24.55s14.58-16.11,21.73-24.3c3-3.43,4.28-3.51,8.45-1.14a80,80,0,0,0,40.12,10.84c27.72-.11,51-10.65,67.77-33.07,4.62-6.16,9.75-7.91,16.73-8.11,10.1-.29,20.18-1.18,30.26-1.87,9.46-.64,18.94-1.14,28.4-1.78,14.07-1,28.14-1.76,42.21-2.73,9.59-.66,19.19-1.14,28.77-1.8,14.19-1,28.4-1.71,42.59-2.72,9.08-.65,18.18-1.17,27.27-1.74q21.3-1.37,42.58-2.76c9.47-.64,18.93-1.18,28.4-1.76,10.21-.62,20.41-1.36,30.62-2,9.1-.56,18.18-1.18,27.27-1.75q15.69-1,31.38-2,14.19-.9,28.39-1.75c10.22-.61,20.42-1.38,30.63-2,9.22-.54,18.43-1.25,27.65-1.75,8.1-.45,16.19-1,24.28-1.56,2.18-.14,3.14-1.16,3.17-3.29,0-1.88-.15-3.73-.28-5.6-.86-11.83-1.67-23.66-2.22-35.5a3.05,3.05,0,0,1,.37-1.44,2.39,2.39,0,0,1,.82-.76c5.16-2.31,5.39-2.33,4.93-8.13-1.37-17.3-2.11-34.65-3.46-51.95-.66-8.59-.83-17.21-1.72-25.79-.42-4.06-1.21-4.65-5.24-4.36-18.55,1.31-37.12,2.35-55.68,3.58-17.57,1.18-35.14,2.27-52.7,3.45-13.58.91-27.17,1.63-40.75,2.54-13.82.93-27.66,1.74-41.48,2.68-13.45.92-26.92,1.64-40.37,2.55-13.7.93-27.42,1.68-41.11,2.68-9.34.68-18.7,1.13-28,1.76-14.19,1-28.4,1.73-42.6,2.75-9.08.66-18.18,1.13-27.28,1.73-14.32.94-28.64,1.89-43,2.73-10,.57-19.89,1.8-29.88,1.49-2.73-.93-1.33-2.33-.38-3.65,2.86-4,6.38-7.35,9.65-11,10.15-11.18,20.22-22.42,30.32-33.64q14.77-16.42,29.48-32.89c10-11.17,20.05-22.24,30.06-33.37q15.28-17,30.53-34,11.25-12.54,22.5-25.07,15.42-17.1,30.79-34.23c7.66-8.54,15.38-17,23-25.59q15-16.71,30-33.42,11.64-12.94,23.31-25.86c3.19-3.5,6.39-7,9.52-10.57,2.76-3.14,2.63-4-.55-6.76-4.91-4.24-9.77-8.54-14.45-13a6.9,6.9,0,0,1-2-2.67c1.47-4.15,5-6.73,7.73-9.87,4.6-5.25,9.25-10.47,14-15.6,1.65-1.78,1.4-3.36-.27-4.84-5.35-4.69-10.65-9.43-15.85-14.28-2-1.88-3.84-1.7-5.77.46-13,14.61-26.26,29.08-39.29,43.7q-24.66,27.66-49.48,55.18c-14.44,16.06-28.94,32.05-43.35,48.13q-25.1,28-50.28,56-18.26,20.34-36.57,40.63c-16.5,18.39-33.09,36.7-49.51,55.17q-15,16.92-30.34,33.63C805,678.5,802,681.7,799.17,685c-3.13,3.72-3.24,3.78-7.82,1.59-25.4-13.12-51.05-13.17-76.94-1.53a66.46,66.46,0,0,0-6.78,4c-2.72,1.84-5.16,1.37-8-.22q-61.59-34.58-123.25-69-45-25.17-89.89-50.36-40-22.41-80.12-44.79-35.64-19.91-71.24-39.91Q298.72,464.36,262.21,444q-29.44-16.43-58.84-32.94c-16-9-32.06-17.9-48.06-26.89-2.28-1.29-5.24-1.88-6.11-5,3.37-6,7.71-11.36,11.91-16.78,13.18-17,26.81-33.58,41.44-49.35,8.92-9.62,17.69-19.38,27.14-28.48a781,781,0,0,1,94.59-78.32,738.09,738.09,0,0,1,106.64-61.69A724.44,724.44,0,0,1,645.57,81.73q21.34-2.79,42.85-4.22c18.94-1.24,37.88-2.31,56.86-2.06,16,.22,31.92,1,47.86,2a717.27,717.27,0,0,1,170.35,32.78,736.33,736.33,0,0,1,94.91,38.05,726.3,726.3,0,0,1,149.51,96.59c12.09,10.08,23.7,20.68,35.19,31.45,42.9,40.22,79.72,85.46,111.66,134.73,12.58,19.41,24,39.52,34.65,60A719.51,719.51,0,0,1,1463,701.07c2.16,15.09,3.91,30.23,5.06,45.41.88,11.43,1.69,22.89,1.82,34.39.1,8.73.69,17.46.67,26.2,0,15.24-1,30.44-1.72,45.65-.19,3.95-.38,8-.89,11.92a7.51,7.51,0,0,1-.15,1.16,18.85,18.85,0,0,0-.58,4.67C1466.61,874.56,1466.26,878.7,1464.87,882.63Z"/><path class="cls-3" d="M1467.28,865.45c-.34-10,1.1-19.87,1.43-29.82.46-14.1,1.13-28.2.65-42.3-.53-15.67-1-31.37-2.32-47a739.65,739.65,0,0,0-12.64-88.48c-4.2-20.23-9.12-40.3-15.07-60.1-6.89-22.93-14.75-45.53-23.83-67.7q-7.45-18.18-15.84-35.94A724.42,724.42,0,0,0,1339.34,390q-18.45-26.54-39.22-51.34a700.49,700.49,0,0,0-51.26-55.47c-14.71-14.18-29.9-27.84-45.71-40.82a755.38,755.38,0,0,0-69.74-50.82c-18.14-11.7-36.83-22.47-56-32.47a729.63,729.63,0,0,0-200.15-69.7q-26.88-5.24-54.14-8.19c-10-1.08-20-1.89-30.1-2.59-21.15-1.47-42.32-2.56-63.51-2-16.9.48-33.8,1.22-50.69,2.67-22.18,1.92-44.23,4.7-66.12,8.56a691.27,691.27,0,0,0-80.92,19.29C509.24,114,487,121.62,465.16,130.64A760.6,760.6,0,0,0,388,167.85q-29.84,16.49-57.9,35.77c-19.13,13.08-37.64,27-55.38,41.93-13,10.92-25.46,22.36-37.88,33.9-10.45,9.7-20.27,20-29.94,30.39a644,644,0,0,0-42.66,50.48c-4.87,6.45-9.85,12.81-14.79,19.21-1.34.9-2.37-.07-3.42-.62-1.89-1-3.75-2-5.63-3-5.64-2.91-10.91-1.52-14.07,4-8,13.94-15.8,28-23.62,42.06-1.39,2.51-3,4.91-4.13,7.55-2.29,5.27-.72,10.16,4.19,13.19,1.54.95,3.57,1.4,4,3.61-8.37,15.35-16.58,30.78-24.08,46.58q-14.86,31.26-26.7,63.81c-8.4,23.1-15.53,46.58-21.62,70.38-1.91,7.43-3.31,15-5.62,22.33.56-9.1,2.36-18,4-27A739.82,739.82,0,0,1,60.12,515.42,729,729,0,0,1,251,219.29a713.39,713.39,0,0,1,62.73-52.79,8.41,8.41,0,0,0,.79-.79c2.73-3.32,6.51-5.38,9.92-7.81a752.61,752.61,0,0,1,64.81-41.62c11.27-6.43,22.64-12.71,34.25-18.47A730.45,730.45,0,0,1,506,62.7Q542,50.06,579,41c18.21-4.45,36.59-8,55.07-11.06,12.84-2.14,25.76-3.78,38.7-5.13,10.73-1.12,21.53-1.74,32.3-2.52,21.45-1.54,42.91-1.53,64.36-1.25,10.68.14,21.39.74,32,1.52,10.49.78,21,1.69,31.45,2.94,12.9,1.56,25.75,3.61,38.58,5.7,20.71,3.37,41.18,7.82,61.47,13.06a706.61,706.61,0,0,1,88.18,29.14q32.11,13,62.88,28.92a737.41,737.41,0,0,1,103.58,65.29c13.14,9.88,25.82,20.35,38.24,31.15,14.31,12.45,28.29,25.24,41.54,38.79q16.33,16.71,31.69,34.37c13,15,25.46,30.38,37.19,46.36a722.22,722.22,0,0,1,100,189.16,738.47,738.47,0,0,1,24.44,86.14q7.08,32.1,11,64.76c2.33,19,3.9,38.14,4.82,57.31.83,17.34,1,34.7.61,52-.42,20.31-1.82,40.57-4,60.77-1.23,11.73-2.75,23.42-4.82,35C1468.23,864.26,1468.71,865.42,1467.28,865.45Z"/><path class="cls-4" d="M1472.56,828a685.93,685.93,0,0,0,4.22-89.25q-.58-30.11-3.42-60.13a710.83,710.83,0,0,0-24.92-130.79,719.65,719.65,0,0,0-40.81-108.4,738.81,738.81,0,0,0-81.91-133.93,707.26,707.26,0,0,0-49.31-57.34A726.55,726.55,0,0,0,935.31,45.78a744.43,744.43,0,0,0-76.37-15.86c-21.82-3.35-43.74-5.44-65.76-6.86Q761,21,728.77,22q-29.88.91-59.68,4.14a722,722,0,0,0-349.37,136c-1.71,1.25-3.49,2.39-5.24,3.58-.79-1.56.78-2,1.47-2.47,20.83-15,42-29.51,64.17-42.46,14.43-8.42,29-16.57,43.93-24q31.77-15.88,65-28.61a720.71,720.71,0,0,1,75.38-24.3c19.59-5.16,39.35-9.67,59.34-12.95,15.29-2.52,30.63-4.82,46.08-6.3q17.25-1.65,34.51-3c22.43-1.75,44.89-1.74,67.32-1.2,14.13.35,28.29,1.12,42.4,2.65,9.75,1.05,19.52,1.88,29.24,3.17,9,1.19,18,2.46,26.89,3.91,22.09,3.59,43.94,8.32,65.57,14A735,735,0,0,1,1009,67.81a711,711,0,0,1,69.09,30.52,732.73,732.73,0,0,1,67.33,38.82,718.51,718.51,0,0,1,60.17,43.52c12,9.67,23.82,19.61,35,30.23,9.69,9.18,19.78,17.95,28.93,27.66,11.87,12.6,23.7,25.22,34.94,38.41a731.8,731.8,0,0,1,57.27,76.9c11,16.94,21.15,34.37,30.68,52.2a726.91,726.91,0,0,1,36.74,79.83,681.7,681.7,0,0,1,24.53,75.7c4,15.29,7.68,30.62,10.67,46.13,2.51,13,4.74,26.12,6.56,39.28,2,14.39,3.22,28.85,4.64,43.3,2.88,29.26,2.34,58.57,1.88,87.86a318.6,318.6,0,0,1-3.46,45.29,29.34,29.34,0,0,0-.07,4.5A.88.88,0,0,1,1472.56,828Z"/><path class="cls-5" d="M1472.56,828h1.38c-2.15,18.47-4.87,36.85-8.28,55.12,0,.16.62,1.6-.63.64-.21-.16-.11-.71-.16-1.09q.86-6.3,1.72-12.61c.68-1.43-.32-3.1.65-4.48l0-.08c1.91-7.2,2.48-14.62,3.57-22C1471.61,838.35,1472,833.14,1472.56,828Z"/><path class="cls-6" d="M106.72,446.33c-1.38-.84-2.75-1.71-4.15-2.52-6.25-3.6-7.92-9.38-4.31-15.91,7.47-13.54,15.07-27,22.62-40.49,1.58-2.83,3.1-5.7,4.76-8.48a10.67,10.67,0,0,1,14.55-4.27c3.11,1.54,6.16,3.24,9.23,4.87,15,8.47,30,17,45,25.4q162.6,91,325.22,182,90.87,50.85,181.71,101.75a4.83,4.83,0,0,0,5.42-.15c2.57,4,2.92,4.11,6.67,2.18q34.32-17.62,70-3l2.42,1c4.66,1.94,4.71,1.92,6.43-2.56,2.09,1.34,3.59,1.38,5.56-.82q35.29-39.6,70.84-79,58.5-65.1,117-130.2,41.46-46.14,83-92.24,18.8-20.89,37.57-41.83c3-3.32,3.54-3.39,7-.34q7.66,6.88,15.32,13.79c3.67,3.31,3.63,3.52.41,7.13-7.24,8.09-14.44,16.23-21.65,24.34-.3,2-1.74,3.26-3,4.64-13.2,14.47-26.19,29.13-39.34,43.65-9.88,10.91-19.67,21.9-29.54,32.83q-15.18,16.8-30.26,33.69c-9.75,10.87-19.58,21.66-29.3,32.56-10.13,11.36-20.36,22.63-30.51,34q-11.47,12.84-23,25.58c-10,11.12-20,22.33-30,33.44Q880.6,640.26,869,653.2q-15.39,17.12-30.77,34.24C833,693.3,827.63,699.09,822.42,705c-1.13,1.28-2.87,2.37-1.43,4.43,1.28,1.84,2.4,3.63,5.3,3.32,8.42-.91,16.91-.91,25.35-1.73a2.31,2.31,0,0,1,2.06.67c14.08-.8,28.17-1.54,42.25-2.41,13.84-.85,27.67-1.85,41.5-2.75q39.43-2.57,78.88-5.09c16.71-1.07,33.41-2.09,50.11-3.15q39.82-2.55,79.64-5.12c17.32-1.1,34.65-2.1,52-3.21q38.51-2.46,77-5c8.35-.55,16.71-1,25-1.61,2.7-.19,4.18.5,4.37,3.58,1.65,26.67,3.45,53.34,5.11,80,.48,7.75.33,7.76-6.68,9.18a4.37,4.37,0,0,1-3.39,1.32c-13.1.49-26.16,1.59-39.24,2.4-13.58.85-27.16,1.68-40.73,2.66-9,.65-17.94,1.17-26.91,1.72-14.58.91-29.15,1.92-43.73,2.77-9.47.56-18.94,1.24-28.41,1.79-13.83.81-27.65,1.8-41.48,2.65-9.47.59-18.94,1.26-28.41,1.83-14.08.84-28.15,1.82-42.23,2.7-9.35.57-18.69,1.23-28,1.79-14.21.84-28.41,1.82-42.61,2.72-9.47.6-18.94,1.13-28.41,1.78-14.08,1-28.16,1.75-42.23,2.73-12.33.87-24.68,1.43-37,2.4-2.84.23-5.4.79-7.58,2.65-.11,0-.25.13-.35.1-5.47-1.72-5.36-1.62-9.2,2.89-13.81,16.23-31.35,25.48-52.51,28.13-15.51,1.93-30.06-1.23-44.08-7.55-2.76-1.25-4.76-1.23-6.16,1.72-.16.19-.42.49-.57.43-4.32-1.79-6.26,1.59-8.45,4-9.82,11-19.68,21.86-29.44,32.86-4.55,5.12-9.21,10.15-13.78,15.26-1.21,1.34-2.67,2.4-4.49.77-6-5.45-11.88-11-18-16.29-2.68-2.3-2.6-3.87-.3-6.37,9.46-10.28,18.75-20.72,28.08-31.12.83-.92,1.54-2,2.31-2.93,1.43-3.87,4.78-6.28,7.3-9.28,2.16-2.56,4.37-5.11,6.7-7.53,1.7-1.77,1.64-3.33.36-5.29a90.16,90.16,0,0,1-14.65-40.33c1.59-7.9-2.49-11.85-9.23-15-8.44-4-16.35-9.07-24.62-13.45-14.51-8.55-29.32-16.55-44-24.83-11.52-6.49-23.17-12.75-34.56-19.47a43.76,43.76,0,0,0-4.3-2.23q-57.39-32.06-114.75-64.17-48.39-27.07-96.74-54.19-46.1-25.79-92.2-51.54-42.35-23.66-84.64-47.4-23-12.92-46.1-25.78c-1.85-1-3.79-1.94-5.09-3.73Z"/><path class="cls-7" d="M821.51,810.05c1.68-3,4.14-3.83,7.62-4,29-1.71,58-3.74,87-5.6,17.69-1.14,35.38-2.13,53.07-3.26,25.41-1.62,50.81-3.34,76.21-5,17.31-1.11,34.63-2.12,51.94-3.22q38.86-2.49,77.71-5,23.54-1.53,47.08-3,39-2.42,78.11-4.78c.87-.06,1.74,0,2.62,0,1.61,4.7.74,9.64,1.3,14.46,1.08,9.25,1.13,18.62,1.76,27.94.22,3.34-1.13,4.16-4.32,4.32-17,.85-34,1.81-51,3q-16.93,1.22-33.88,2.22c-13.28.77-26.53,2-39.8,2.85-8.94.61-17.89,1-26.83,1.58-14.52.91-29,1.53-43.55,2.89-4.45.42-8.94.41-13.41.74-14.15,1-28.34,1.44-42.49,2.47-11.54.85-23.09,1.46-34.63,2.25-16,1.08-32,2.06-48,3q-17.12,1-34.25,2.2c-15.88,1.09-31.78,2-47.66,3-11.3.73-22.59,1.49-33.88,2.17-10.05.6-20.09,1.5-30.13,2.14-1.83.11-2.58,1.14-3.44,2.42a84.42,84.42,0,0,1-35,30,87.58,87.58,0,0,1-28.36,7.48c-16.53,1.75-31.89-1.85-46.62-9-7.32-3.53-7.17-3.54-12.55,2.52-7.7,8.66-15.6,17.15-23.37,25.75q-9.52,10.53-18.92,21.18c-2,2.25-3.44,2.48-5.77.22-5.27-5.11-10.68-10.13-16.39-14.73-2.79-2.25-2.5-4-.58-6.18,5.31-6,10.61-11.91,16.14-17.65,2.16-2.24,3.61-5.13,6.33-6.84,2,.56,3.17-.7,4.38-2.06,14.79-16.49,29.68-32.88,44.34-49.48,2.41-2.74,4.34-4,7.46-1.57a6.32,6.32,0,0,1,3.14,1.1c24.37,12,49.09,12.48,73.9,1.74,12.71-5.51,23.16-14.2,31.78-25.07C819.4,812.14,820,810.69,821.51,810.05Z"/><path class="cls-7" d="M109,447.67c11.25,6.21,22.53,12.37,33.75,18.64q99.41,55.59,198.8,111.21L549.17,693.75c.14.76-.35,1.08-.94,1.33-1.82.44-3.43-.37-5.09-.88q-46.38-14.13-92.77-28.26c-14.93-4.52-29.88-9-44.76-13.68-4.58-1.45-8.74-1.89-12.67,1.39a2.22,2.22,0,0,1-1.78.43c-7.55-3.28-14.48-7.74-21.67-11.69-14.21-7.8-28.29-15.81-42.42-23.73Q300,603.46,273,588.28c-15.77-8.82-31.59-17.57-47.36-26.39Q199,547,172.46,532q-23.65-13.23-47.36-26.39c-8.82-4.91-17.69-9.73-26.42-14.8-6.9-4-7.94-10.19-3.58-17.61s8.36-14.74,12.49-22.14A32.65,32.65,0,0,0,109,447.67Z"/><path class="cls-7" d="M853.7,711.66,825,713.8c-3.66.27-4.11-3.2-5.71-5.16-1.36-1.65.89-2.56,1.77-3.54q59.07-65.82,118.22-131.57,41-45.57,81.95-91.12,42.35-47.1,84.7-94.19a18,18,0,0,1,1.37-1.24c6.11,5.5,12.2,11,18.34,16.48,1.77,1.58,2.32,2.89.42,5-5.65,6.14-11.06,12.49-16.63,18.7q-19.43,21.72-38.92,43.38c-7.33,8.14-14.73,16.23-22,24.38q-19,21.13-37.89,42.29c-7.32,8.16-14.72,16.24-22,24.4q-19,21.12-37.89,42.28c-7.24,8.07-14.55,16.07-21.79,24.13q-19.21,21.4-38.4,42.84c-7.75,8.61-15.61,17.12-23.37,25.72C862.53,701.52,858.13,706.61,853.7,711.66Z"/><path class="cls-8" d="M391.16,654.08c3.77-4.13,8-4.94,13.49-3.26q70.91,21.82,141.92,43.33c.59.18,1.22.27,1.82.39a14.7,14.7,0,0,1,4.52,1.42c8,4.37,15.94,8.7,23.87,13.12q24.16,13.49,48.27,27.08c2.26,1.27,4.43,2.72,6.64,4.08-1.69,1.33-3.37.33-5-.14-18.91-5.58-37.72-11.47-56.59-17.16-33.67-10.16-67.28-20.54-101-30.71-8.59-2.6-17.18-5.2-25.73-7.92-2.22-.66-4.51-1.13-6.43-2.55-4.46-3.66-9.79-5.9-14.74-8.73-9.3-5.31-18.64-10.55-28.08-15.63a5.93,5.93,0,0,1-3-2.64A1.94,1.94,0,0,1,391.16,654.08Z"/><path class="cls-9" d="M443.45,683.37q28.46,8.58,56.9,17.18,64.59,19.63,129.15,39.32a15.89,15.89,0,0,0,2.19.37c11.12,5.37,21.6,11.91,32.47,17.74a3.12,3.12,0,0,1,2,3.22c-.09,2.74,0,5.48,0,8.23-3,2.41-6.27,1.11-9.3.26-9.62-2.71-19.14-5.74-28.7-8.65-30.94-9.42-61.85-19-92.83-28.25-3.48-1-6.82-2.42-10.17-3.78l-5.92-2.4c-25-12.43-48.8-27-73.31-40.35C444.76,685.64,443.3,685.16,443.45,683.37Z"/><path class="cls-7" d="M525.15,729c4.48,0,8.43,2.1,12.56,3.34,24.91,7.46,49.74,15.2,74.61,22.78,15.23,4.64,30.51,9.12,45.74,13.77a21.09,21.09,0,0,0,8.09.53c1.37,8,2.76,15.9,5.91,23.43a90,90,0,0,0,9.62,17.64c1,1.38,1.41,2.39,0,3.85-5.45,5.8-10.79,11.71-16.16,17.57a59.88,59.88,0,0,1-3.11-22c.12-2.54-.68-4-3-5.29-18.34-10.13-36.59-20.43-54.86-30.69q-33.1-18.58-66.22-37.18C533.88,734.22,529.17,732.2,525.15,729Z"/><path class="cls-10" d="M993.69,638.68a10.8,10.8,0,0,1-10.3-7.78,10.51,10.51,0,0,1,5.15-12.45c9.42-5.36,18.93-10.59,28.4-15.87,14.16-7.89,28.29-15.83,42.49-23.64,7.47-4.11,15.36-.52,16.69,7.39.75,4.5-1.49,8.75-6.17,11.37q-26.12,14.61-52.26,29.15c-5.88,3.28-11.77,6.54-17.64,9.84A14.68,14.68,0,0,1,993.69,638.68Z"/><path class="cls-10" d="M1070.14,945.34c0,8.07-9,13.09-16.49,8.79-9.85-5.64-19.56-11.52-29.33-17.3-13.43-7.94-26.86-15.85-40.25-23.84-4.56-2.72-6.59-7.19-5.61-11.65a11,11,0,0,1,9.3-8.58,10.45,10.45,0,0,1,7.14,1.64l69.57,41.17A11.11,11.11,0,0,1,1070.14,945.34Z"/><path class="cls-10" d="M523.07,897.63a9.64,9.64,0,0,1-5.25,7.79q-35.76,20-71.57,39.86a10.74,10.74,0,1,1-10.35-18.82q35.42-19.83,70.93-39.47C514.77,882.62,523.37,887.81,523.07,897.63Z"/><path class="cls-10" d="M896.35,537.2a10.67,10.67,0,0,1-9.44-15.94c2.26-4.16,4.85-8.14,7.29-12.19q17-28.2,33.95-56.39c3.22-5.33,7.81-7.51,12.74-6.17,7.12,1.93,10.17,9.79,6.2,16.47-7.71,13-15.54,25.85-23.32,38.77Q914.91,516.5,906,531.24C903.84,534.91,900.81,537.21,896.35,537.2Z"/><path class="cls-10" d="M748.59,445.12c0-13.48-.08-27,0-40.45,0-6.75,4.67-11.22,11-11.07,6.19.16,10.55,5,10.44,11.74q-.63,39-1.28,77.91a22.92,22.92,0,0,1-.44,4.45,10.68,10.68,0,0,1-21.15-2.13c-.08-13.48,0-27,0-40.45Z"/><path class="cls-10" d="M936.36,1073.66c0,5.5-3.06,9.58-7.72,10.88a10.36,10.36,0,0,1-12.21-4.91c-4.35-7.57-8.47-15.26-12.68-22.91-8.55-15.51-17.06-31-25.66-46.53-1.78-3.21-2.74-6.5-1.55-10a10,10,0,0,1,8.69-7.23c4.63-.55,8.42,1,10.79,5.17,3.28,5.73,6.4,11.56,9.59,17.35q14.26,25.89,28.52,51.78C935.35,1069.45,936.54,1071.63,936.36,1073.66Z"/><path class="cls-10" d="M757.91,1077.42c0,13.6.11,27.21,0,40.81-.06,5.08-3,8.54-7.6,10a10.7,10.7,0,0,1-11.65-3.9,10.21,10.21,0,0,1-2.08-6.64c.41-26.22.76-52.43,1.23-78.65.11-6.32,2.73-10,7.62-11.58a10.81,10.81,0,0,1,11.73,3.69c1.79,2.28,2.22,4.89,2.21,7.73-.07,12.85,0,25.71,0,38.57Z"/><path class="cls-10" d="M438.55,747c13.11,0,26.22-.05,39.33,0,7,0,11.76,4.65,11.66,11s-5.07,10.76-12,10.65q-39.33-.65-78.65-1.4c-6.49-.12-11-4.65-11.05-10.75s4.75-10.82,11.37-10.84c13.11,0,26.22,0,39.33,0Z"/><path class="cls-10" d="M622.73,999a9.55,9.55,0,0,1-1.69,5.47q-20.35,33.82-40.74,67.63c-3.52,5.8-9.88,7.56-15.11,4.43s-6.79-9.77-3.25-15.66q20.13-33.53,40.36-67c3.13-5.18,7.59-7.09,12.57-5.64A10.68,10.68,0,0,1,622.73,999Z"/><path class="cls-10" d="M583.7,439.45c2.7.12,5.84,1.94,7.81,5.49q19.28,34.89,38.43,69.85a10.73,10.73,0,1,1-18.82,10.31q-19.25-34.69-38.26-69.53C568.65,447.83,573.84,439.26,583.7,439.45Z"/><path class="cls-11" d="M443.45,683.37c4.58,3.46,9.79,5.87,14.75,8.67,19.85,11.19,39.8,22.21,59.69,33.31a7.22,7.22,0,0,1,1.34,1.26L479.9,714.73q-41-12.4-81.91-24.82c-7.92-2.38-11.08-9.51-7-15.91,1.64-2.53,4.64-2.74,6.76-4.41,1.27-1,2.66-.55,3.94-.15,11.31,3.59,22.86,6.38,33.92,10.75.68.27,1.48.34,1.78,1.17Z"/><path class="cls-12" d="M792.28,686.11c.64,1.55,1.11,3.07-.39,4.46-1.67,1.53-3.23.65-4.81-.13a80.11,80.11,0,0,0-43.86-7.85,73.15,73.15,0,0,0-30,9.49c-4.53,2.61-6.45,1.56-6.49-3.55,9.14-6.46,19.49-10,30.36-11.77a84.77,84.77,0,0,1,53.37,8.08A14.76,14.76,0,0,1,792.28,686.11Z"/><path class="cls-6" d="M437.43,681.36l-37.11-11.21c-.82-.25-1.69-.38-2.53-.56-7.76-3.6-9.78-8.13-6.63-14.83,13.58,7.51,27.2,15,40.72,22.6C433.83,678.46,436.55,678.71,437.43,681.36Z"/><path class="cls-3" d="M1467.24,865.54c0,1.52.25,3.09-.65,4.48C1466.57,868.49,1465.87,866.87,1467.24,865.54Z"/><path class="cls-13" d="M814.77,763c.76,33.81-27.38,62.81-62.41,62.59-34.84-.22-62.82-27.15-62.62-63,.21-36.41,29.85-62.28,63-62.26C787.06,700.34,815.85,729.78,814.77,763Z"/><path class="cls-12" d="M821.51,810.05c-3.2,6.69-8.61,11.55-14,16.27a85.69,85.69,0,0,1-93.83,11.91c-1.43-.71-3-1.29-4-2.71.8-4.59,2.16-5.31,6.26-3.33,12.19,5.88,25.07,9,38.6,8.42a78.47,78.47,0,0,0,47.54-18.28,80.5,80.5,0,0,0,12.84-13.45C817.29,805.75,819.69,806.21,821.51,810.05Z"/><path class="cls-14" d="M552.91,696a8.28,8.28,0,0,1-4.52-1.42l.78-.79A8.81,8.81,0,0,1,552.91,696Z"/><path class="cls-15" d="M760.67,710.94c8.73.73,16.36,4.35,23.2,9.5,12.82,9.64,19.84,22.5,21.2,38.65,2.38,28.14-18.5,52.77-45.5,56.31a55.36,55.36,0,0,1-30.86-5,4.91,4.91,0,0,1-2.65-2c1.81-1.23,3.36.07,4.93.61,13.44,4.61,27,5.63,40.19-.25,12.06-5.38,21.63-13.77,26.89-26.33a21.24,21.24,0,0,0,.8-2.49c2.41-8.72-1-12.13-9.83-9.65-5.64,1.58-11.22,3.42-16.78,5.27a177.89,177.89,0,0,1-20.6,5.54,31.65,31.65,0,0,1-21.81-3c-5.4-2.87-11-5.4-16.08-8.81a16.33,16.33,0,0,0-4.42-2c-3.92-1.18-5.67-.4-7.49,3.33a3.91,3.91,0,0,1-1.22,1.84c-2.71-8.83-1.38-17.55,1.42-26,5.16-15.55,15.41-26.55,30.71-32.69,1.33,1.17.54,2.56.29,3.83-.41,2.08-1,4.12-1.48,6.19s.32,2.79,2.38,2.39c3.43-.68,6.9-1,10.36-1.48,8.82-1.17,15.81,2.39,22.33,7.66.91.74,1.73,2.36,3,1.74s1-2.2,1.08-3.42c.27-2.62-.13-5.27.18-7.86.58-4.85-1.8-7.41-6-9.06C763.35,713.27,761,713.44,760.67,710.94Z"/><path class="cls-16" d="M700.64,772.57c.61-6.26,3.6-8.53,9.28-6,6.93,3.08,13.56,6.87,20.21,10.56a30.14,30.14,0,0,0,21,3.06c12.26-2.42,24.09-6.4,35.89-10.43a21,21,0,0,1,8.47-1c4.06.31,6,3.18,5.45,7.25-1.68,11.39-8.52,19.52-17,26.44-10.82,8.85-23.39,12.55-37.33,11.31-7.12-.63-13.88-2.8-20.56-5.23a60.9,60.9,0,0,1-23.51-26.14A21.41,21.41,0,0,1,700.64,772.57Z"/><path class="cls-10" d="M760.67,710.94c2.6,1.18,5.21,2.32,7.79,3.55s3.82,3,3.58,5.92c-.37,4.47.15,9-.68,13.45-.19,1.06.24,2.53-1.12,2.91-1.07.31-1.65-.93-2.34-1.6a41,41,0,0,0-9.64-7c-7.81-4.06-15.8-2.35-23.74-.82-4.68.91-5,.74-3.87-4,.76-3.14,1.41-6.31,2.12-9.46-.12-2.4,1.61-3.11,3.41-3.73,7.73-2.68,15.4-1.58,23.05.4Z"/></g></g></svg>