<?xml version='1.0' encoding='utf-8'?>
<svg xmlns="http://www.w3.org/2000/svg" version="1.1" viewBox="0 0 454.8 672.3"> <defs> <style>.st0 { fill: #fff; }</style> </defs> <path class="st0" d="M302.3,163.4v-63.4c-.9-12.3-.6-24.8-1.2-37.2-.4-7.7,1.7-15-7.3-18.6-24-2.1-48.6-1.6-72.8-2.4-16.8,2.7-36.6-.5-53.1,1.4s-9.5,4-10.3,9c-1.7,10.9-.4,25.2-.7,36.5-.5,23.3-2.1,47.7-.7,71.1s0,2.9.8,4.2c1.7,1.2,15.6.9,18.8.8,36.6-.6,73-.6,109.6,0,5.6,0,11.4.3,16.9-1.4ZM303.7,144.5v42.2c-33-18.2-73-23.1-109.8-15.1s-26.5,8.3-39.1,14.4c-.8-11.8-1-23.8-.7-35.6s2.7-9.7-2.1-8.8-14.4,6.5-14.8,7.2c-1.2,13.7-2.8,26.7-7.6,39.6-9.5,25.6-29.7,41.8-42.2,65.4-25.6,48.4-23.9,108.2,3.6,155.3s27.2,32.6,36.8,54.3c6.5,14.6,8.9,28.8,9.7,44.8.4.9,1.1,1.5,1.9,2.1,1.6,1.1,11.7,6,13.5,6.5s1.2.3,2-.7v-42.5l1-3c34.8,20,79.7,23.6,118,12.3,10.4-3.1,20.2-7.7,29.9-12.3l.7,46.5c.7.8,16.7-7.2,17.6-9.3-.3-19.1,4.4-38.1,13.8-54.7,8.3-14.9,20.5-26,29.4-40.4,31.1-50.3,31.6-115.8,1.2-166.6-10.8-18-25-30.2-34.3-50.1-7.1-15.1-9.5-30.6-10.6-47.2l-16-7.9c-.5,0-1.6,3-1.7,3.6ZM403.1,313c-3.6-.8-9.7.6-13.6,0v2h12.6v.7h-11.6l-.7,1.3c.8,1.1,5.1.7,6.7.7s5.1-1.7,6.3.6h-12.6v2h12v.7h-12v2.7c.8.9,9.7-.9,11.6-.7s1.1-.2,1,1.3h-12.6v2.7h10.3c.3,0,1.4-1,2.3-.7v1.3s-12.6,0-12.6,0v2h12.6v.7h-12.6v6.6h12.6v.7h-12.3l-1,2,2,.7c-3.6-.9-1.4,4.6-2,6.7h13c.9,0,3.2-1.9,3.7-2.9,1.9-4,1.9-22.8.6-27.3s-2.2-3.4-3.6-3.7ZM158.6,491.9l-2.1,1.9c-.3,25.9-.8,52.1-.4,78.1s-.2,22.4.8,31.1,4.3,11,10.9,11.7c11.4,1.3,26.6-.2,38.6,0,23.2.4,45,.8,68.4,0,6.9-.2,18.7,1.9,23.6-3.6s3.1-9.8,3.3-13.9c1.7-30.5,0-61.8.6-92.4s2.3-8.4-.9-11.7l-142.8-1.2Z"/> <path d="m158.6 491.9 142.8 1.2c3.2 3.3 1 7.9 0.9 11.7-0.6 30.6 1.1 62-0.6 92.4s-0.6 10.8-3.3 13.9c-4.9 5.5-16.7 3.4-23.6 3.6-23.4 0.8-45.2 0.4-68.4 0s-27.2 1.3-38.6 0c-6.6-0.7-10.2-5.4-10.9-11.7s-0.6-22-0.8-31.1c-0.5-26 0.1-52.2 0.4-78.1l2.1-1.9zm11.5 43.7c-0.3-1.4 1-9.2-1.6-8.6s-1.7 9 1.6 8.6zm120.3-7.9-2 0.3-0.5 0.8v6.2h2.6v-7.3zm-120.3 14.6h-2s0 7.3 0 7.3h2.7s-0.7-7.3-0.7-7.3zm119.7 0h-2v8h2v-8zm0 21.9-0.3-8-1.7 1.6v6.3h2zm-119-7.3h-2.7v7.3h2.7v-7.3zm0 21.9c0.6-0.4 0.8-8.7-2-8v8s2 0 2 0zm119-7.9-2.7 1.1v6.9s2.1-0.3 2.1-0.3l0.5-0.8v-6.9zm-118.3 14.6h-2.7c0.4 2.7-1.6 9.9 2.7 8.3v-8.3zm117.6 0h-2c0.4 2.8-2.1 6.3 0.3 8.6l1.7-1.1v-7.5zm-117 14.6h-2c-0.8 1.4-0.4 8 1 8 2.6-1.1 1.1-0.8 1-3s0-3.3 0-5zm115.6 0.1h-1.9c0.1 1.3-0.6 7.9 1 7.9l1.7-1.1-0.7-6.8z"/> <path d="M302.3,163.4c-5.4,1.8-11.2,1.5-16.9,1.4-36.6-.5-73-.5-109.6,0-3.2,0-17.1.4-18.8-.8-.8-1.3-.8-2.7-.8-4.2-1.4-23.4.2-47.8.7-71.1.2-11.3-1-25.7.7-36.5s5.4-8.5,10.3-9c16.5-1.9,101.9-1.1,125.9,1,9.1,3.6,6.9,10.9,7.3,18.6.7,12.3.3,24.9,1.4,37.2v63.4ZM172.1,51.1l-2,.3-.5.8v6.2c-.1,0,2.6-1.1,2.6-1.1v-6.2ZM288.4,51.1h-2c.2,2.6-1.3,8.5,2.7,7l-.7-7ZM171.5,65.8l-2,.3-.5.8v6.9c-.1,0,1.9,0,1.9,0l.7-8ZM289.1,65.8h-2c.3,2.6-1.4,9.2,2.7,7.6l-.7-7.6ZM171.5,80.4h-2.7s0,8.6,0,8.6h2s.7-8.6.7-8.6ZM289.8,89v-7.5c-.1,0-.6-.8-.6-.8l-2-.3c.4,2.9-1.5,8.1,2.7,8.6ZM168.1,104.3l2-.3.5-.8v-7.5c0,0-2.6,1.1-2.6,1.1v7.6ZM289.8,95.7h-2.7c.9,2.8.7,5.7.7,8.6h2s0-8.6,0-8.6ZM170.1,118.9l-.3-8-1.7,1.6v6.3c0,0,2,0,2,0ZM290.3,111.7l-2.6-.8c.3,2.6-1.5,9.2,2.7,7.6v-6.9ZM290.4,126.2h-2v8h2v-8ZM170.1,126.9h-2.7v6.7h2.7v-6.7Z"/> <path d="M303.7,144.5c0-.6,1.2-3.6,1.7-3.6l16,7.9c1.1,16.5,3.6,32.1,10.6,47.2,9.3,19.9,23.6,32.1,34.3,50.1,30.4,50.8,29.9,116.3-1.2,166.6-8.9,14.4-21,25.5-29.4,40.4-9.3,16.6-14.1,35.6-13.8,54.7-.9,2.1-16.9,10.1-17.6,9.3l-.7-46.5c-9.7,4.6-19.5,9.2-29.9,12.3-38.3,11.3-83.2,7.7-118-12.3l-1,3v42.5c-.8,1-.8,1-2,.7-1.8-.4-11.9-5.3-13.5-6.5s-1.5-1.1-1.9-2.1c-.8-16-3.2-30.2-9.7-44.8-9.6-21.7-25.3-34.6-36.8-54.3-27.4-47.2-29.1-106.9-3.6-155.3,12.5-23.6,32.7-39.9,42.2-65.4s6.4-25.9,7.6-39.6c.4-.7,13.5-7,14.8-7.2,4.9-.9,2.2,5.8,2.1,8.8-.3,11.8,0,23.8.7,35.6,12.6-6.1,25.3-11.4,39.1-14.4,36.8-8.1,76.8-3.1,109.8,15.1v-42.2ZM123.8,436.4c69.5,68.1,181.4,53.4,232.7-28.4,65.9-105.2-18.9-241.9-142.2-229.9-126.5,12.3-181.3,169.2-90.5,258.3Z"/> <path d="M403.1,313c1.4.3,3.2,2.3,3.6,3.7,1.3,4.4,1.3,23.2-.6,27.3s-2.8,2.9-3.7,2.9h-13c.6-2.1.8-6.6.8-6.6v-2.7s12.5,0,12.5,0v-.7h-12.6v-6.6h12.6v-.7h-12.6v-2h12.6v-.7c-1-.4-2,0-2.3,0h-10.3v-2.7h12.6c0-1.5,0-.6-1.3-.8-2-.2-8.9.2-11.3.1v-2.7h12v-.7h-12v-2h12.6c0-1.3-7-.9-7.2-.9s-5.4,0-5.4,0l-.2-1.7h12.2s0-.7,0-.7h-12.6v-2c3.9.6,10-.8,13.6,0Z"/> <path class="st0" d="m171.5 585.5v8.3c-4.2 1.6-2.2-5.6-2.7-8.3h2.7z"/> <path class="st0" d="M170.1,535.6c-3.4.4-3.4-8.3-1.6-8.6,2.7-.6,1.4,7.2,1.6,8.6Z"/> <polygon class="st0" points="289.8 570.9 289.7 577.7 289.1 578.5 287.1 578.8 287.1 572"/> <rect class="st0" x="168.1" y="556.9" width="2.7" height="7.3"/> <path class="st0" d="M289.1,585.5v7.5s-1.7,1.1-1.7,1.1c-2.4-2.3,0-5.8-.3-8.6h2Z"/> <path class="st0" d="M287.7,600.2l.7,6.8-1.7,1.1c-1.6,0-.8-6.6-1-8h1.9Z"/> <polygon class="st0" points="290.4 527.7 290.4 535 287.8 535 287.9 528.8 288.4 528"/> <path class="st0" d="m172.1 600.1v5s1.6 1.9-1 3c-1.3 0-1.8-6.6-1-8h2z"/> <polygon class="st0" points="170.1 542.3 170.8 549.6 168.1 549.6 168.1 542.3"/> <path class="st0" d="M170.8,578.8h-2s0-8,0-8c2.8-.7,2.5,7.6,2,8Z"/> <rect class="st0" x="287.8" y="542.3" width="2" height="8"/> <polygon class="st0" points="289.8 564.2 287.8 564.2 287.7 557.9 289.4 556.2"/> <path class="st0" d="M289.8,89c-4.1-.5-2.3-5.7-2.7-8.6l2,.3.5.8v7.5Z"/> <polygon class="st0" points="168.1 104.3 168.1 96.7 170.8 95.7 170.7 103.2 170.2 104"/> <path class="st0" d="M290.3,111.7v6.9c-4,1.5-2.2-5-2.6-7.6l2.6.8Z"/> <polygon class="st0" points="171.5 65.8 170.8 73.7 168.8 73.7 168.9 66.9 169.4 66.1"/> <polygon class="st0" points="171.5 80.4 170.8 89 168.8 89 168.8 80.4"/> <path class="st0" d="M289.1,65.8l.7,7.6c-4.1,1.5-2.3-5-2.7-7.6h2Z"/> <path class="st0" d="M289.8,95.7v8.6s-2,0-2,0c0-2.9.2-5.8-.7-8.6h2.7Z"/> <polygon class="st0" points="172.1 51.1 172.1 57.3 169.5 58.5 169.6 52.2 170.1 51.4"/> <rect class="st0" x="167.5" y="126.9" width="2.7" height="6.7"/> <path class="st0" d="M288.4,51.1l.7,7c-3.9,1.5-2.4-4.4-2.7-7h2Z"/> <rect class="st0" x="288.4" y="126.2" width="2" height="8"/> <polygon class="st0" points="170.1 118.9 168.1 118.9 168.1 112.6 169.8 111"/> <path class="st0" d="m123.8 436.4c-90.9-89.1-36.1-246 90.5-258.3 123.3-12 208 124.7 142.2 229.9-51.2 81.8-163.2 96.5-232.7 28.4zm92.1-257.5c-100.1 7.5-162.9 114.9-124.5 207.1 43.6 104.4 182.2 125.1 253.5 36.2 82.5-102.8 2.1-253.2-129-243.4z"/> <path d="M215.9,178.9c131.2-9.8,211.5,140.6,129,243.4-71.3,88.9-209.9,68.2-253.5-36.2-38.5-92.2,24.3-199.6,124.5-207.1ZM231.3,188.7h-5.3c-.1,1.7.6,3.3.7,5,.4,11.4-1.5,26.6,0,37.3s.6,2.7,2.4,3l1.6-1.1.8-44.1ZM216,190h-2s1.3,11.3,1.3,11.3c3-2.4-.4-7.8.7-11.3ZM243.2,190.1c-.8-1.1-1.2,0-1.3,1-.4,3.3-.5,7-.7,10.3,1.7.1,1.1.2,1.3-1,.5-3.4.8-6.9.7-10.3ZM200.7,191.4c-1.2,0-1.4-.4-1.3.9.2,2,1.3,6.9,2,8.7s.5,1.9,2,1.7l-2.7-11.3ZM258.5,191.4c-1.5-.2-1.6.6-2,1.7-1,2.9-.5,6.7-2,9.6,1.4.3,1.6-.6,2-1.7,1-2.7,1-6.7,2-9.6ZM186.7,196c-1.6-.2-1.5.1-1.2,1.5.5,2.5,2,7.5,3.8,9.1l-2.7-10.6ZM272.5,196c-1.3-.3-1.6.6-2,1.6-1.1,2.4-1.5,6.4-2.6,9,1.3.3,1.6-.6,2-1.6,1.1-2.4,1.5-6.4,2.6-9ZM172.8,201.3c-1.1,0-1.5-.3-1.3,1,.3,2.4,3.6,7,4.3,9.6,1.4-1,.7-1.2.4-2.3-.8-2.7-2.8-5.4-3.3-8.3ZM286.4,201.3c-1.2-1.3-4.4,6.9-4.7,7.6s-.8,1.9-.6,3c1.3-.7,5.7-10.2,5.3-10.6ZM160.8,206.7l-3.9,2.9c3.5,3.9,20.8,36.5,23,36.9s2.9-1.8,1.7-3.7l-20.8-36.1ZM300.3,208.1l-2.9-1.2-1.3,1.2c-6.3,11.7-14.2,23.1-20.4,34.7s-.8,3.3,2.7,3.7l21.6-35.9.3-2.5ZM148.1,215.4c-.4-.2-1.8-.4-1.9.2,3,2.4,4.2,7.7,8,9,.4-.4-5.6-8.8-6.1-9.2ZM310.4,215.3c-1.7-.4-1.2.5-1.7,1.3-.8,1.1-5.6,7.3-4.9,8,1,1.2,1.5-.9,1.7-1.3.9-1.2,5.7-7.1,4.9-8ZM314.4,233.9c2.7-2,4.9-4.7,7-7.3s1.5-.8,0-2c-1.7,3.6-6.3,5.2-7,9.3ZM139.3,230.2c.3.3,4.5,5.9,4.3,2.7s-8-8.2-8.6-7.6c.6,1.9,3,3.5,4.4,4.9ZM324.3,243.2c1.3.3,1.6-.7,2.3-1.3s6.3-5.2,6.3-5.7-.6-1-1.6-.3-7.8,6.5-7,7.3ZM132.9,243.2c.7-.7-1.4-2.5-2-3-1.4-1.4-4.1-3.6-6-4.3-1.2,1.2,7,6.7,8,7.3ZM125.6,254.5c.3-1.4-.7-1.5-1.5-2.1-2.3-1.9-5.7-3.9-8.5-5.2,0,1.7,2.5,2.9,3.8,3.9s5.8,3.8,6.2,3.4ZM332.3,254.5l10-6.3c-1-1.4-1-.8-2.2-.2s-5,3.3-6.3,4.4-1.8.7-1.5,2.1ZM223.3,336.3c4.9,3,9.8,2.4,13.3-2.3s1.2-7.3,2.1-8.8l75-61.6c4.8-3.1,1.5-9-3.3-6l-75.2,62.1M231.8,318.9c-7.7-2.7-14.2,3.1-13.2,11M231.8,318.9,109.3,257.3c-1.4,1.1-3.2,3.3-1.7,4.9l35.9,20.7,2.7-2.1-36.9-23.5ZM349.5,257.9l-38.4,21.2,1.9,3.6c12.7-6.6,25.9-13.9,37.8-22.1l-1.4-2.8ZM101,273.1c2.9.6,5.6,2.6,8.3,3.3s1.3,1.1,2.3-.3l-9.7-4.2-.9,1.2ZM356.2,271.8c-1,.3-11.6,3.7-10,5.3,2.5-1.3,5.9-1.9,8.3-3.3s1.9-.6,1.6-2ZM106.3,288.4l-10.6-2.7c1.7,2.1,6.4,3.3,9.1,3.9s1.7.4,1.5-1.2ZM361.5,285.8c-3,.6-6.4,1.4-9.2,2.5s-1.8-.4-1.5,1.5c3-.6,6.4-1.4,9.2-2.5s1.8.4,1.5-1.5ZM365.5,301l-.3-1.3c-3,1.1-6.3,1.2-9.4,2s-1.9-.7-1.6,1.3l11.3-2ZM103,301.7l-10.6-1.3c-.1,1.7,0,1.1,1,1.3,2.3.4,5.2,1,7.4,1.3s2.6.6,2.2-1.2ZM101,315.7l-11.3-.7c2.4,2.2,6.8,1.2,10.5,1.8s.8,0,.8-1.2ZM356.2,316.3h11.3c.5-2.6-4.2-.8-5.7-1.4l-5.6,1.4ZM130.9,328.3l-41.5-.7-1,4.3h3.5c0,0,39-.3,39-.3v-3.3ZM368.2,327.6l-41.4.6-1.1,2.3c.4,2.1,7.5,1.8,9.9,1.9s7.4-.2,9-.2c7.9.2,15.8-.2,23.6,0v-4.7ZM101,342.9c-.4-.3-8.3.5-9.6.7s-2.1.5-1,1.3c3.2,0,6.5-.3,9.6-.7s2.1-.5,1-1.3ZM367.5,343.6l-11.3-.7c1.2,1.6,6.1,1.8,8.3,2s3.5.7,3-1.3ZM103,356.2l-10.2,2-.5,2c2.9-1.2,6.2-1.4,9.2-2.5s1.8.3,1.5-1.5ZM364.9,358.2l-10.6-2c1.4,2.1,6.6,3.1,9,3.3s1.8.5,1.6-1.3ZM106.3,369.5c-.9.2-11.7,3-10,4.6.8-.5,11.8-2.9,10-4.6ZM361.5,372.8l-10.6-3.3c-.4,1.9.5,1.1,1.5,1.5,1.7.8,5.6,2.5,7.2,2.9s1.6.2,2-1ZM108.4,401.3c.9.4,1.7,0,2.5-.3,6.1-2.3,25.2-14.4,31.2-18.6s6.5-3.7,1.7-5.6l-36.7,21.6,1.2,2.9ZM349.4,400.6c.4-.4.8-1.5.7-2.1l-36.8-21.7c-5.6,2.5,2.8,6.2,5.5,7.9s27.3,16.6,29,16.6c.5-.1,1.2-.3,1.6-.7ZM111.6,382.1l-10.6,5c1.1,1.6,1.1.6,2.2.2,1.6-.6,5.2-2.3,6.8-3.2s1.9-.6,1.6-2ZM356.9,387.4c-3.1-2.5-7.7-3.7-11.3-5.3-.3,1.5.7,1.5,1.6,2,1.4.8,5.8,2.8,7.3,3.4s1.2,0,2.3,0ZM116.3,412.7l9.3-7c-1.2-1.6-1-.7-2,0-1.7,1.3-4.5,3.3-5.9,4.7s-1.7,1-1.4,2.3ZM341.6,411.4l-10-6.7c-1.2,1.2,8.2,6.5,8.3,8l1.7-1.3ZM295.9,451.8c1.5.9,4.3-.7,3.8-2.7-6.7-10.7-12.7-22.4-19.6-33s-2.4-4.1-3.6-3.8c-1.2.5-2.3,1.1-1.9,2.6l21.3,36.9ZM179.9,412.8l-23,36.8,3.1,2.3,22.3-36.7v-1.5c-.1,0-2.4-.9-2.4-.9ZM125.6,423.3l8.6-7c-1.2-1.5-1-.7-2,0s-7.5,6.1-6.6,7ZM333,423.3c-2.4-2.1-4.6-4.6-7-6.6s-1.1-1.6-2.3-1.3c-.9.9,7.4,8.6,9.3,8ZM143.5,425.3c-.8-.7-5,3.9-5.7,4.6-.9,1.1-2.2,2.5-2.3,4l5.7-5.3,2.3-3.3ZM313.7,425.3c-.3,1.2.7,1.6,1.3,2.3,1,1.2,4.5,4.9,5.7,5.7s1.7.2,1.6-.3-8-8.2-8.6-7.6ZM226.6,427.3v42.5h4.7c-.2-14.2-1.1-28.3-.7-42.5h-4ZM154.2,434c-1.2-.3-1.6.6-2.3,1.4-1.1,1.3-3,3.8-4.1,5.2s-1.3,1.3-1,2.7l2.1-1.5,5.2-7.8ZM305,434l-1.3.3c-.1,1.7,4.8,7.9,6.6,9-.3-3.5-4.3-5.9-5.3-9.3ZM176.8,446.6c-1.8-.4-1.1.4-1.6,1.3s-4.7,9.6-4.3,10c1,1.2,1.4-.9,1.7-1.3,1.7-2.9,3.7-6.7,4.3-10ZM281.8,446.6c-1.2,0-1.4-.3-1.4,1,.1,2.1,4,7.9,5,10.3,1.6-1.1.6-1.1.2-2.2-1-3-3.5-5.7-3.9-9.1ZM186.1,463.2c.7-3.2,2.3-6,3.2-9.1s1.4-1.1-.2-2.2l-4,9.3,1,2ZM269.1,451.9c-1.1,0-1.5-.3-1.3,1s2.4,7,3,8.3-.1,1.6,1.6,1.3l-3.3-10.6ZM200.7,466.5l2-11.3c-1.9,1.7-2.2,5.6-2.8,8.1s-2.3,2.9.8,3.2ZM258.5,466.5c-1-3.5-.8-8.6-3.3-11.3-.8,3.9,2,7.6,1.3,11.3h2ZM215.3,469.2c0-3.2.7-6.3.9-9.5s.8-2.5-.5-2.5-1.6,7.6-1.7,8.9-.6,3.5,1.4,3ZM243.2,469.2v-10.3c0,0-.7-1.5-1-1.7-2.2,1,.6,8.7-.3,11l1.3,1Z"/> <path class="st0" d="m310.4 257.5-75.6 62.7-2.9-1.3c-3.6-1.2-6.9-0.7-9.3 1.1l-6.9-4.4-45.6-29.6c-1.1-0.5-2.4-0.6-3.5-0.3-3.2 1.1-0.9 5.4 1.2 6.5l50.8 34.9v2.7c0.2 3.7 4.7 6.3 4.7 6.3 4.9 3 9.8 2.4 13.3-2.3 2.9-3.9 1.2-7.3 2.1-8.8l75-61.6c4.8-3.1 1.5-9-3.3-6zm-83.1 71.4v-2.7c4.4-0.5 4.4 3.1 0 2.7z"/> <path class="st0" d="M231.3,188.7l-.8,44.1-1.6,1.1c-1.7-.3-2.1-1.4-2.4-3-1.4-10.7.5-25.9,0-37.3s-.8-3.2-.7-5h5.3Z"/> <path class="st0" d="m349.5 257.9 1.4 2.8c-12 8.1-25.1 15.4-37.8 22.1l-1.9-3.6 38.4-21.2z"/> <path class="st0" d="M108.4,401.3l-1.2-2.9,36.7-21.6c4.8,1.9.6,4-1.7,5.6-6,4.2-25.1,16.4-31.2,18.6s-1.6.7-2.5.3Z"/> <path class="st0" d="M109.3,257.3l36.9,23.5-2.7,2.1-35.9-20.7c-1.6-1.6.3-3.8,1.7-4.9Z"/> <path class="st0" d="M295.9,451.8l-21.3-36.9c-.5-1.5.7-2,1.9-2.6,1.2-.3,3,2.8,3.6,3.8,6.9,10.6,12.8,22.3,19.6,33,.5,2-2.3,3.6-3.8,2.7Z"/> <path class="st0" d="M160.8,206.7l20.8,36.1c1.2,1.8.6,4.1-1.7,3.7s-19.5-33-23-36.9l3.9-2.9Z"/> <path class="st0" d="M300.3,208.1l-.3,2.5-21.6,35.9c-3.5-.4-4.4-.6-2.7-3.7,6.3-11.6,14.1-23,20.4-34.7l1.3-1.2,2.9,1.2Z"/> <path class="st0" d="M349.4,400.6c-.4.4-1,.6-1.6.7-1.7,0-25.6-14.4-29-16.6s-11.1-5.3-5.5-7.9l36.8,21.7c.1.5-.3,1.7-.7,2.1Z"/> <path class="st0" d="M226.6,427.3h4c-.4,14.2.5,28.4.7,42.5h-4.7v-42.5Z"/> <polygon class="st0" points="179.9 412.8 182.2 413.7 182.3 415.1 159.9 451.8 156.8 449.6"/> <polygon class="st0" points="130.9 328.3 130.9 331.6 91.9 331.9 88.5 331.9 89.4 327.6"/> <path class="st0" d="M243.2,469.2l-1.3-1c.9-2.3-1.8-10,.3-11,.3.2,1,1.6,1,1.7v10.3Z"/> <path class="st0" d="M215.3,469.2c-2,.5-1.4-1.7-1.4-3s.8-8.9,1.7-8.9c1.4,0,.6,2,.5,2.5-.1,3.2-.8,6.3-.9,9.5Z"/> <path class="st0" d="M216,190c-1.1,3.5,2.3,8.9-.7,11.3l-1.3-11.3h2Z"/> <path class="st0" d="M258.5,466.5h-2c.7-3.7-2.1-7.4-1.3-11.3,2.5,2.7,2.3,7.8,3.3,11.3Z"/> <path class="st0" d="M125.6,254.5c-.4.4-5.4-2.9-6.2-3.4-1.3-.9-3.7-2.1-3.8-3.9,2.7,1.2,6.1,3.3,8.5,5.2s1.8.8,1.5,2.1Z"/> <path class="st0" d="M281.8,446.6c.4,3.3,2.8,6.1,3.9,9.1s1.3,1.1-.2,2.2c-1-2.4-4.9-8.2-5-10.3s.2-1.1,1.4-1Z"/> <path class="st0" d="M176.8,446.6c-.6,3.2-2.6,7.1-4.3,10s-.6,2.6-1.7,1.3,3.7-8.9,4.3-10-.1-1.7,1.6-1.3Z"/> <path class="st0" d="M269.1,451.9l3.3,10.6c-1.7.3-1.2-.3-1.6-1.3s-2.8-7.2-3-8.3.3-1,1.3-1Z"/> <path class="st0" d="M186.1,463.2l-1-2,4-9.3c1.6,1.1.5,1.2.2,2.2-.9,3.1-2.5,5.9-3.2,9.1Z"/> <path class="st0" d="M154.2,434l-5.2,7.8-2.1,1.5c-.3-1.4.3-1.8,1-2.7,1-1.4,2.9-3.9,4.1-5.2s1-1.6,2.3-1.4Z"/> <path class="st0" d="M272.5,196c-1.1,2.7-1.5,6.6-2.6,9s-.7,1.9-2,1.6c1.1-2.7,1.5-6.6,2.6-9s.7-1.9,2-1.6Z"/> <path class="st0" d="M313.7,425.3c.6-.6,8.6,7.1,8.6,7.6s-.6,1-1.6.3-4.6-4.4-5.7-5.7-1.6-1.1-1.3-2.3Z"/> <path class="st0" d="M258.5,191.4c-1,2.9-1,6.9-2,9.6s-.6,1.9-2,1.7c1.6-2.9,1.1-6.7,2-9.6s.5-1.9,2-1.7Z"/> <path class="st0" d="m341.6 411.4-1.7 1.3c0-1.5-9.5-6.8-8.3-8l10 6.7z"/> <path class="st0" d="M111.6,382.1c.3,1.5-.7,1.5-1.6,2-1.6.9-5.1,2.6-6.8,3.2s-1.1,1.3-2.2-.2l10.6-5Z"/> <path class="st0" d="M200.7,191.4l2.7,11.3c-1.4.3-1.6-.6-2-1.7-.7-1.8-1.7-6.7-2-8.7s.1-1,1.3-.9Z"/> <path class="st0" d="M332.3,254.5c-.3-1.4.8-1.5,1.5-2.1,1.3-1.1,4.8-3.6,6.3-4.4s1.2-1.2,2.2.2l-10,6.3Z"/> <path class="st0" d="M243.2,190.1c.1,3.4-.2,6.9-.7,10.3s.3,1.1-1.3,1c.1-3.3.3-7,.7-10.3s.5-2,1.3-1Z"/> <path class="st0" d="M101,273.1l.9-1.2,9.7,4.2c-1,1.5-1.2.6-2.3.3-2.7-.7-5.5-2.8-8.3-3.3Z"/> <path class="st0" d="M305,434c1,3.4,5,5.8,5.3,9.3-1.9-1.1-6.8-7.3-6.6-9l1.3-.3Z"/> <path class="st0" d="M200.7,466.5c-3.1-.3-1.2-1.5-.8-3.2.6-2.5.9-6.4,2.8-8.1l-2,11.3Z"/> <path class="st0" d="M148.1,215.4c.5.3,6.5,8.8,6.1,9.2-3.8-1.3-5-6.5-8-9,0-.6,1.5-.4,1.9-.2Z"/> <path class="st0" d="m106.3 369.5c1.9 1.7-9.2 4.2-10 4.6-1.8-1.6 9-4.4 10-4.6z"/> <path class="st0" d="M356.9,387.4c-1.1.1-1.2.5-2.3,0s-5.9-2.6-7.3-3.4-1.9-.6-1.6-2c3.6,1.6,8.2,2.8,11.3,5.3Z"/> <path class="st0" d="M103,356.2c.3,1.8-.4,1.1-1.5,1.5-3,1-6.3,1.2-9.2,2.5l.5-2,10.2-2Z"/> <path class="st0" d="M125.6,423.3c-.9-.9,5.5-6.4,6.6-7s.9-1.5,2,0l-8.6,7Z"/> <path class="st0" d="M333,423.3c-1.9.6-10.2-7.1-9.3-8,1.2-.3,1.6.7,2.3,1.3,2.4,2,4.6,4.6,7,6.6Z"/> <path class="st0" d="M172.8,201.3c.6,2.9,2.6,5.6,3.3,8.3s1,1.3-.4,2.3c-.7-2.7-4-7.2-4.3-9.6s.2-1,1.3-1Z"/> <path class="st0" d="M103,301.7c.4,1.9-.8,1.4-2.2,1.2-2.2-.3-5.1-.8-7.4-1.3s-1.1.4-1-1.3l10.6,1.3Z"/> <path class="st0" d="M106.3,288.4c.2,1.6-.1,1.5-1.5,1.2-2.7-.6-7.4-1.7-9.1-3.9l10.6,2.7Z"/> <path class="st0" d="M310.4,215.3c.8,1-4,6.8-4.9,8s-.7,2.4-1.7,1.3,4.1-7,4.9-8,0-1.7,1.7-1.3Z"/> <path class="st0" d="M324.3,243.2c-.8-.8,6.2-6.8,7-7.3s1.7-.2,1.6.3-5.4,4.9-6.3,5.7-1.1,1.6-2.3,1.3Z"/> <path class="st0" d="M356.2,271.8c.3,1.5-.7,1.5-1.6,2-2.5,1.4-5.8,1.9-8.3,3.3-1.6-1.6,8.9-5,10-5.3Z"/> <path class="st0" d="M286.4,201.3c.4.4-4,9.9-5.3,10.6-.1-1.1.3-2,.6-3s3.5-8.9,4.7-7.6Z"/> <path class="st0" d="M365.5,301l-11.3,2c-.3-2,.5-1.1,1.6-1.3,3.1-.8,6.4-.9,9.4-2l.3,1.3Z"/> <path class="st0" d="M361.5,285.8c.3,1.9-.4,1.1-1.5,1.5-2.8,1.1-6.2,1.9-9.2,2.5-.3-1.9.4-1.1,1.5-1.5,2.8-1.1,6.2-1.9,9.2-2.5Z"/> <path class="st0" d="M361.5,372.8c-.4,1.3-.8,1.3-2,1s-5.5-2.1-7.2-2.9-1.8.4-1.5-1.5l10.6,3.3Z"/> <path class="st0" d="M186.7,196l2.7,10.6c-1.9-1.7-3.3-6.6-3.8-9.1s-.4-1.7,1.2-1.5Z"/> <path class="st0" d="m143.5 425.3-2.3 3.3-5.7 5.3c0-1.5 1.4-2.9 2.3-4s4.9-5.3 5.7-4.6z"/> <path class="st0" d="M101,342.9c1.1.8,0,1.2-1,1.3-3.1.4-6.5.6-9.6.7-1.1-.8,0-1.2,1-1.3,1.4-.2,9.2-1,9.6-.7Z"/> <path class="st0" d="M139.3,230.2c-1.4-1.4-3.8-3.1-4.4-4.9.6-.6,8.6,7.1,8.6,7.6.2,3.2-3.9-2.4-4.3-2.7Z"/> <path class="st0" d="M367.5,343.6c.5,2-1.6,1.4-3,1.3-2.2-.1-7.1-.4-8.3-2l11.3.7Z"/> <path class="st0" d="M364.9,358.2c.2,1.7-.2,1.4-1.6,1.3-2.5-.2-7.6-1.2-9-3.3l10.6,2Z"/> <path class="st0" d="M101,315.7c0,1.1.4,1.4-.8,1.2-3.7-.7-8.1.4-10.5-1.8l11.3.7Z"/> <path class="st0" d="M132.9,243.2c-1-.6-9.2-6.1-8-7.3,1.9.7,4.6,2.9,6,4.3s2.6,2.3,2,3Z"/> <path class="st0" d="M116.3,412.7c-.3-1.3.7-1.6,1.4-2.3,1.5-1.4,4.2-3.4,5.9-4.7s.7-1.6,2,0l-9.3,7Z"/> <path class="st0" d="M356.2,316.3l5.6-1.4c1.5.5,6.2-1.2,5.7,1.4h-11.3Z"/> <path class="st0" d="M314.4,233.9c.7-4.1,5.3-5.7,7-9.3,1.5,1.2.8.9,0,2-2,2.6-4.3,5.3-7,7.3Z"/> <path d="M227.3,328.9v-2.7c4.4-.5,4.4,3.1,0,2.7Z"/> <rect class="st0" x="390.1" y="329.6" width="12.6" height=".7"/> <rect class="st0" x="390.1" y="329.6" width="12.8" height="1"/> <rect class="st0" x="390.1" y="332.8" width="12.8" height=".8"/> <rect class="st0" x="390.1" y="341.3" width="12.8" height="1"/> <rect class="st0" x="390.1" y="338.3" width="12.8" height=".8"/> <rect class="st0" x="390.1" y="339.7" width="12.8" height=".8"/> <rect class="st0" x="389.6" y="325.1" width="12.8" height=".8"/> <rect class="st0" x="390.1" y="334.2" width="12.8" height=".8"/> <rect class="st0" x="389.7" y="335.5" width="13.2" height=".8"/> <rect class="st0" x="389.9" y="343.2" width="12.8" height=".5"/> <rect class="st0" x="390.1" y="328.4" width="12.8" height=".5"/> <rect class="st0" x="389.9" y="331.4" width="12.8" height=".5"/> <rect class="st0" x="389.8" y="322" width="12.8" height=".5"/> <rect class="st0" x="389.6" y="344.8" width="12.8" height=".5"/> <rect x="402.1" y="315" width="1.6" height="30.3"/> </svg>