<?xml version="1.0" encoding="UTF-8"?>
<svg viewBox="0 0 430.70425 427.83337" xmlns="http://www.w3.org/2000/svg">
 <g transform="translate(-159.65 -318.45)">
  <path d="m368.33 734.78c0.6057-1.6142 0.4861-1.6694-0.9993-0.46112-1.099 0.894-1.6872 0.98115-1.6872 0.25 0-0.61734-0.5063-1.0099-1.125-0.87244-1.857 0.41267-2.0789-1.9032-0.3482-3.6339 2.001-2.001 3.8602-2.0596 5.4275-0.17111 1.4605 1.7598 1.0154 5.7437-0.705 6.3103-0.8443 0.27807-1.0272-0.18384-0.5628-1.4217zm18.314-3.2745c0-1.6825 0.45-3.059 1-3.059s1 1.0984 1 2.441-0.45 2.7191-1 3.059c-0.5834 0.36058-1-0.65628-1-2.441zm-41.985-0.75c-8e-3 -1.755 0.43469-3.4691 0.98469-3.809 1.2817-0.79212 1.2817 3.5167 0 5.5-0.73761 1.1414-0.97304 0.73709-0.98469-1.691zm-20.597-2.6829c0.52305-4.086 1.1744-5.3664 2.2054-4.3354 0.34319 0.34319-0.12421 2.3307-1.0387 4.4167l-1.6626 3.7927 0.4959-3.8739zm83.739-0.6261c0-1.375 0.227-1.9375 0.5044-1.25s0.2774 1.8125 0 2.5-0.5044 0.125-0.5044-1.25zm-105.16-2.8508c0-1.9304 2.2614-7.1492 3.0978-7.1492 1.3175 0 1.1073 1.7026-0.62351 5.0497-1.5118 2.9234-2.4743 3.7402-2.4743 2.0996zm125.58-1.015c-0.4307-0.697-0.5131-1.5373-0.183-1.8674 0.8949-0.89496 1.8707 0.4213 1.3873 1.8714-0.3387 1.0162-0.5742 1.0154-1.2043-4e-3zm-50.185-7.2988c-0.2258-0.36552 0.0897-0.8313 0.701-1.0351 1.2105-0.4035-4.6961-26.8-5.9969-26.8-0.9941 0-7.2768 25.908-6.5629 27.063 0.6647 1.0754-6.0602 1.2381-12.829 0.31028-3.8181-0.52333-4.4258-0.89317-3.6967-2.25 0.69531-1.294 4.9828-34.82 6.2183-48.624 0.23769-2.6557 0.64209-3.0039 3.5233-3.0338 3.0839-0.0321 3.2258 0.12535 2.7036 3-0.3031 1.6686-1.5694 13.543-2.8141 26.388-1.9052 19.663-2.0437 23.439-0.8761 23.887 0.7628 0.29271 1.9551-0.0919 2.6496-0.85456s3.8599-12.114 7.0344-25.225 6.0885-23.461 6.4756-23 3.0687 11.413 5.9592 24.338c3.1896 14.263 5.8383 23.952 6.7383 24.65 1.1842 0.91817 0.4454 1.2204-3.6669 1.5-2.8325 0.1926-5.3346 0.0511-5.5604-0.31442zm-94.398-0.78836c0-1.6683 2.2886-6.047 3.1605-6.047 1.1743 0 1.0605 0.67196-0.6862 4.0497-1.5442 2.9861-2.4743 3.737-2.4743 1.9974zm163.54 0.022c-0.3164-0.512-0.118-1.2136 0.441-1.559s1.0163 0.0734 1.0163 0.9309c0 1.7565-0.6001 2.0152-1.4573 0.62812zm18.707-3.7314c-2.0488-0.82669-1.4594-5.1553 0.8718-6.4029 1.7464-0.93465 2.4757-0.78178 4.1214 0.86395 2.2572 2.2572 1.6273 4.2012-1.3612 4.2012-1.1 0-1.7219 0.45-1.382 1 0.6516 1.0544-0.1688 1.1775-2.25 0.33772zm-198.89-5.1176c0.75315-1.2186-2.7014-3.5494-3.7325-2.5183-0.34731 0.34732-0.63148-0.33494-0.63148-1.5161 0-2.2931 3.6961-3.9 6.4978-2.825 1.2984 0.49825 2.3011 6.6392 1.084 6.6392-0.23002 0-1.2038 0.30147-2.164 0.66994-1.1543 0.44294-1.5113 0.29052-1.0538-0.44983zm25.899-7.3874c-2.8647-1.7714-3.066-2.1726-1.75-3.4886 0.81784-0.81784 1.487-1.5751 1.487-1.6829s1.5755-5.5501 3.5011-12.094 3.344-12.055 3.152-12.247c-0.56886-0.56886-18.653 19.387-18.653 20.584 0 1.4916-1.1544 1.3771-3.6349-0.3603-2.02-1.4148-1.845-1.6959 6.0723-9.75 4.4837-4.5612 12.535-12.966 17.891-18.676s9.9612-10.161 10.233-9.8887-2e-3 1.7945-0.60891 3.3833c-3.1148 8.1536-12.837 43.527-12.328 44.853 0.80106 2.0875-1.3795 1.8305-5.3618-0.63195zm155.96-1.0827c-0.0168-1.2375-2.7994-12.746-6.1838-25.574s-5.9941-23.802-5.7994-24.386 3.9716 3.1675 8.3932 8.3368 8.6762 10.068 9.4548 10.886 4.9673 5.4344 9.3084 10.259c6.0182 6.6886 8.334 8.632 9.75 8.1826 3.2076-1.0181 2.0396 0.2615-3.1579 3.4596-5.6664 3.4866-6.437 3.7059-5.6299 1.6028 0.5707-1.4871-2.3978-5.329-12.999-16.824-2.9457-3.1938-5.3557-5.1606-5.3557-4.3705 0 2.9147 6.2353 26.189 7.1024 26.511 1.6162 0.60021 0.9445 1.8242-1.6495 3.0062-3.2934 1.5006-3.1979 1.5328-3.2332-1.0895zm36.435-0.57874c-1.8151-2.0056-2.1148-3.1713-0.8155-3.1713 0.4617 0 1.3521 1.125 1.9785 2.5 1.3548 2.9734 1.0695 3.1381-1.163 0.67126zm-238.66-3.767c0-1.5464 3.5769-6.4043 4.7156-6.4043 1.834 0 1.5922 1.339-0.78819 4.3651-1.906 2.4231-3.9274 3.4727-3.9274 2.0392zm22.955-8.5556c-4.5375-2.7306-4.4124-2.5346-2.7064-4.2406 0.81794-0.81794 7.4667-10.402 14.775-21.298s13.404-19.959 13.546-20.141c0.25192-0.32279 2.5422 0.83562 5.2982 2.6798 1.087 0.72735 0.5561 2.0201-2.5804 6.2835-6.7786 9.2141-22.43 32.976-23.683 35.955l-1.1946 2.8411-3.4554-2.0794zm232.06-1.3245c-0.7888-0.95039-0.8647-1.5242-0.2016-1.5242 1.2086 0 2.6176 1.8972 1.9241 2.5907-0.2517 0.2517-1.0268-0.22824-1.7225-1.0665zm-271.02-4.3371c0-1.3795 5.5963-6.2575 6.3333-5.5204 0.38207 0.38206-0.52082 1.9634-2.0064 3.514-2.6835 2.801-4.3269 3.563-4.3269 2.0064zm28.5-1.817c-1.9197-1.6368-2.5544-2.7327-1.7627-3.0431 0.6805-0.26683 7.0864-8.437 14.235-18.156 18.523-25.182 16.233-22.738 19.375-20.679 1.459 0.956 2.6528 1.983 2.6528 2.2823s-1.904 3.06-4.2312 6.135c-8.1748 10.802-24.769 34.418-24.769 35.25 0 1.5829-2.4989 0.77014-5.5-1.7888zm259.13-6.953c-1.5759-1.3858-2.574-2.811-2.2179-3.1671s2.0868 0.79199 3.8461 2.5513c3.7775 3.7775 2.5117 4.2562-1.6282 0.61584zm-301.02-7.8571c0.76985-2.0062 5.1597-4.733 5.842-3.629 0.30892 0.49985-0.6283 1.8448-2.0827 2.9889-3.0855 2.4271-4.5401 2.6747-3.7593 0.64006zm314.28-8.4489c-1.3155-1.0664-2.0417-2.2902-1.6139-2.7194s1.7528 0.19447 2.9444 1.3861c2.8132 2.8132 1.7765 3.8522-1.3305 1.3333zm-15.531-6.813c0.0922-1.1303-6.4101-6.4824-19.361-15.936-10.725-7.8287-20.062-14.263-20.75-14.298-1.7266-0.0885-1.5805-0.79124 0.8839-4.2521 1.1736-1.6482 2.4111-2.5672 2.75-2.0422 1.4704 2.2783 40.594 29.285 42.028 29.012 0.8735-0.1663 1.723-1.242 1.8879-2.3904 0.246-1.7146-3.1519-4.3816-19-14.913-10.615-7.0536-20.276-13.338-21.469-13.966l-2.1689-1.1413 2.0497-3.2372c2.0424-3.2257 2.0572-3.2303 4.1689-1.3022 1.9611 1.7907 14.665 10.232 32.481 21.582 7.6852 4.8962 10.452 5.4226 10.911 2.0758 0.2212-1.6132-3.6965-4.4028-20.7-14.74-11.535-7.0125-21.446-12.75-22.023-12.75-1.4009 0-1.3308-0.55581 0.5224-4.1394 1.3995-2.7064 1.7562-2.8844 3.25-1.622 0.9228 0.77995 5.9529 3.9132 11.178 6.9627s14.225 8.3173 20 11.706 11.395 6.0336 12.49 5.8771c3.5936-0.51396 2.8994-3.5138-1.4483-6.2584-4.6563-2.9394-25.343-14.045-35.042-18.812l-6.8237-3.3616c-0.1781-0.0917 0.396-1.5586 1.2756-3.2597 1.5497-2.9968 3.0295-3.9177 3.7148-2.3119 0.1833 0.42959 7.9833 4.878 17.333 9.8854 25.896 13.869 25.615 13.743 27.694 12.444 0.9932-0.62029 1.8059-0.88901 1.8059-0.59714 0 3.4058-24.826 43.486-26.936 43.486-0.4632 0-0.7797-0.76587-0.7033-1.7019zm-310.06-2.8297c2.9364-2.5833 4.6942-3.1428 4.6942-1.4941 0 0.96941-5.1752 4.0544-6.7003 3.9941-0.43981-0.0174 0.46293-1.1424 2.0061-2.5zm19.313-2.4684c-1.771-2.6762-2.2058-4-1.3139-4 1.2287 0 18.695-17.072 18.695-18.273 0-1.0338-22.539 6.6461-24.653 8.4-0.76769 0.63712-1.5385 0.98179-1.7128 0.76591-2.5286-3.1306-17.635-35.1-17.635-37.321 0-0.24587 0.7875-0.40009 1.75-0.34272 2.6374 0.1572 44.454-15.371 47.002-17.453 0.93984-0.76835 1.7817 0.19057 3.3805 3.8506 1.9114 4.3756 7.7192 16.864 8.6188 18.533 0.19539 0.36247-9.7936 6.1577-22.198 12.878s-22.553 12.58-22.553 13.021c0 1.0297 2.052 0.42352 27.289-8.0618 11.542-3.8808 21.169-6.872 21.394-6.6471s-7.2577 8.4507-16.628 18.28-17.041 18.433-17.046 19.121c-0.0169 2.3374-1.7364 1.2603-4.3903-2.75zm-3.8621-32.25c4.2812-2.3375 13.512-7.131 20.514-10.652 7.5478-3.796 12.73-6.995 12.73-7.8584 0-1.0327-0.68932-1.2833-2.3699-0.86147-4.0416 1.0144-41.999 18.601-42.743 19.804-1.0811 1.7493 0.11403 3.8181 2.2057 3.8181 1.0336 0 5.3821-1.9125 9.6633-4.25zm4.3115-15.594c10.138-4.3141 19.894-8.6006 21.682-9.5257 3.13-1.6198 4.3576-3.6305 2.2165-3.6305-1.5029 0-44.307 16.979-45.329 17.98-1.0777 1.0558 0.0539 3.0196 1.74 3.0196 0.69251 0 9.5535-3.5297 19.691-7.8438zm316.54 44.689c-1.9294-2.7545-0.4677-5.8454 2.7642-5.8454 3.3667 0 3.8729 1.056 1.4948 3.1185-1.2099 1.0494-1.8514 2.4702-1.5132 3.3515 0.8743 2.2784-1.0132 1.849-2.7458-0.62466zm-348.95-9.6741c-2.1402-2.3649-2.0863-3.471 0.27335-5.6064 2.4914-2.2547 5.8648-1.2374 6.681 2.0148 1.1832 4.7142-3.67 7.2207-6.9544 3.5916zm361.6-10.418c-1.7875-0.57341-3.25-1.4275-3.25-1.8979 0-1.5032 2.7022-0.91886 5.1392 1.1114 2.6563 2.2129 2.6132 2.2309-1.8892 0.78652zm-371.25-9.7398c0-0.54262 1.63-1.6676 3.6221-2.5 4.4158-1.845 4.3779-1.8441 4.3779-0.11125 0 0.7712-1.4172 1.8962-3.1492 2.5-3.8847 1.3542-4.8508 1.3764-4.8508 0.11125zm379.75-9.2161c-3.6734-0.97565-5.1693-2.7973-2.2971-2.7973 2.0672 0 6.5471 2.1626 6.5471 3.1605 0 0.46171-0.1125 0.79297-0.25 0.73613s-1.9375-0.55155-4-1.0993zm-181.17-12.481c-1.0463-4.849-3.4042-14.134-5.2399-20.634s-3.3376-12.446-3.3376-13.215c0-1.7345-3.2332-3.568-4.669-2.6478-1.2277 0.78686-9.5679 15.119-17.408 29.915-2.9827 5.629-6.0393 10.242-6.7924 10.25-2.8826 0.0323-12.956-7.143-19.403-13.821-3.7002-3.8328-6.7277-7.3778-6.7277-7.8779s1.4625-1.9756 3.25-3.279 9.8633-7.7538 17.946-14.334l14.696-11.964-0.12435-6.7057c-0.0943-5.0868 0.3935-7.6992 2.0205-10.821l2.1449-4.115-15.562-24.283c-8.559-13.356-16.644-25.433-17.967-26.838s-2.4049-3.0926-2.4049-3.75-0.3375-1.1981-0.75-1.2016-1.5375-1.39-2.5-3.081c-1.506-2.6461-1.75-5.8663-1.75-23.101 0-21.686 0.38843-20.209-4.7613-18.105-0.7881 0.32203-1.0524-0.029-0.70453-0.93561 0.55712-1.4518-10.105-11.534-11.122-10.517-0.81283 0.81283 1.6193 14.147 2.7025 14.817 0.88789 0.54874-0.36185 1.6533-4.9049 4.3351-0.96765 0.5712-1.134 0.13975-0.66568-1.7263 0.58636-2.3362-1.8839-21.053-3.1521-23.883-1.1292-2.5196-19.35-17.959-22.045-18.68-2.7208-0.72765-2.7118-0.74234 2.0864-3.4241 5.3754-3.0044 6.744-3.3182 5.9985-1.3755-0.45486 1.1853 11.228 12.453 11.973 11.546 0.16458-0.20034-0.14551-4.0556-0.68909-8.5673-0.74887-6.2156-1.3792-8.2843-2.6016-8.5386-1.4165-0.29464 16.939-9.7584 18.927-9.7584 0.42487 0 0.56025 0.81161 0.30085 1.8036s2.9616 9.2045 7.1578 18.25c11.131 23.995 11.501 24.829 11.501 25.936 0 0.556 0.45 1.0109 1 1.0109 2.3755 0 0.68179 1.9102-3 3.3833-2.2 0.88027-4 1.9886-4 2.4629 0 0.8319 17.626 15.91 25.195 21.553 3.8395 2.8624 3.9096 3.0196 9.1819 20.601 10.118 33.74 16.007 52.76 16.814 54.31 0.6314 1.2118 1.8297 1.7075 3.6259 1.5 2.2144-0.25583 5.8717-4.5868 20.951-24.81 10.048-13.475 18.609-24.95 19.026-25.5 20.541-27.11 28.206-37.729 28.206-39.076 0-0.66559-0.707-1.4814-1.571-1.813-1.3855-0.53166-1.3427-0.92817 0.3622-3.357 5.8762-8.3711 26.209-41.619 26.209-42.856 0-1.1393 0.8715-0.95975 3.9923 0.82239 3.8082 2.1747 5.106 3.7799 3.0561 3.7799-0.5233 0-3.0717 3.2625-5.6631 7.25-11.466 17.644-18.278 28.746-17.609 28.703 1.6332-0.10597 42.725-36.655 42.742-38.016 0.0218-1.7485 4.258-7.9368 5.4331-7.9368 0.4484 0 1.0795 1.0106 1.4025 2.2458 0.4368 1.6702-3.9025 10.577-16.93 34.75l-17.517 32.504-20.088 21.5c-11.048 11.825-25.31 27.125-31.693 34s-14.925 15.962-18.983 20.193c-7.2213 7.5288-7.3547 7.7612-6.2608 10.899 1.6806 4.821 1.354 9.7886-0.9575 14.564l-2.0754 4.2871 10.992 15.279c6.0457 8.4032 12.14 16.808 13.542 18.678s2.2903 3.8194 1.9729 4.333c-2.0376 3.2968-19.664 11.833-27.367 13.253l-3.5101 0.6472-1.9023-8.8163zm-7.5359-55.866c1.0628-1.2806 0.9972-1.8396-0.3775-3.2143-1.5521-1.5521-1.7761-1.5521-3.3282 0-1.3747 1.3747-1.4403 1.9337-0.3776 3.2143 0.7076 0.85261 1.6264 1.5502 2.0417 1.5502s1.334-0.69758 2.0416-1.5502zm-52.616-121.7c-1.0076-3.1959-15.703-34.826-18.061-38.875-2.149-3.6897-5.3513-4.8001-7.2489-2.5136-0.95035 1.1451-0.86088 3.9958 0.41735 13.298 1.8325 13.336 1.3396 12.493 13.724 23.467 7.9862 7.077 12.537 8.9605 11.169 4.6233zm-145.43 179.42c0-0.88775 5.1441-3.1652 7.1492-3.1652 1.6931 0 0.80205 1.879-1.1539 2.4334l-4 1.1348c-1.0974 0.31163-1.9953 0.1303-1.9953-0.40296zm390.75-9.8545c-0.9625-0.25152-1.75-0.92681-1.75-1.5006 0-0.59394 0.9691-0.78359 2.25-0.44033 1.2375 0.33164 2.8125 0.60913 3.5 0.61664s1.25 0.46365 1.25 1.0136c0 1.0158-2.0807 1.1389-5.25 0.31067zm-395.75-11.194c0-1.0113 3.4394-2.0829 6.75-2.103 2.5872-0.0157 3.0077 1.4816 0.66821 2.3794-2.3858 0.91553-7.4182 0.72804-7.4182-0.27638zm398.27-10.367c0.4765-1.3594 5.1812-1.1812 7.6957 0.2915 1.0583 0.61984 0.0367 0.90709-3.3006 0.92809-3.4434 0.0217-4.7073-0.32908-4.3951-1.2196zm-13.272-3.8301c-2.0141-1.1031-48.451-5.0679-50.436-4.3062-1.1646 0.44689-1.5643-0.045-1.5643-1.9249 0-4.7671 0.7814-5.52 4.8103-4.6352 2.0293 0.44568 13.499 1.3592 25.488 2.03 22.646 1.2671 24.262 1.0799 23.535-2.7274-0.3171-1.6605-1.7766-1.9228-13.844-2.4881-7.4191-0.34752-19.227-0.68502-26.239-0.75l-12.75-0.11813-9e-4 -3.25-9e-4 -3.25 25.15 0.29979c13.832 0.16489 25.645 0.10968 26.251-0.12268 2.4973-0.9583 2.8484 0.24515 2.6688 9.1483-0.2163 10.725-0.869 13.299-3.0678 12.094zm-366.97-16.67c-0.0303-12.641 0.34714-14.471 2.5343-12.284 0.62151 0.62151 3.1006 0.40976 6.95-0.59366 9.6154-2.5064 9.6719-2.7491 1.5874-6.8203-5.752-2.8967-7.5641-3.4148-8.6859-2.4838-1.1781 0.9777-1.4008 0.60662-1.3179-2.1959 0.0548-1.8548 0.45997-4.4974 0.90032-5.8724 0.70903-2.2139 0.81205-2.2594 0.90032-0.3976 0.0806 1.7003 2.4114 3.1146 12.186 7.3945l12.087 5.292 12.643-3.2125c6.9536-1.7669 13.225-3.696 13.938-4.287 1.7863-1.4825 1.9921-0.93185 1.4806 3.9605-0.35145 3.3615-0.84364 4.25-2.3544 4.25-2.5956 0-13.881 3.1833-13.876 3.914 2e-3 0.32233 3.3429 1.9135 7.4235 3.5359l7.4194 2.9498 0.36419 6.5502c0.2003 3.6026 0.22937 7.0011 0.0646 7.5523-0.17885 0.59825-6.4412 1.1014-15.538 1.2485-25.505 0.41233-36.044 1.2947-37.445 3.1351-0.99206 1.3028-1.2353-0.94184-1.261-11.636zm52.425 0.64982c1.6402-1.5665-1.4671-3.56-12.362-7.9306l-10.405-4.1741-13.557 4.1353c-7.4561 2.2744-13.87 4.6422-14.253 5.2618-1.3487 2.1822 0.33645 3.7048 4.4553 4.0256 8.1742 0.63671 45.181-0.42081 46.121-1.318zm-72.457 9.1002c0-0.55 1.575-1 3.5-1s3.8-0.1125 4.1667-0.25 0.85416 0.3125 1.0833 1c0.29293 0.87879-0.94444 1.25-4.1667 1.25-2.5208 0-4.5833-0.45-4.5833-1zm403-8c-1.4898-2.7837 0.3736-6 3.4762-6 2.4301 0 3.7836 1.2815 4.1889 3.966 0.5945 3.9377-5.7459 5.6202-7.6651 2.034zm-401.99-10.487c-1.6626-2.0033-0.48375-6.2281 1.9538-7.0017 4.4417-1.4097 8.0679 4.0563 4.8354 7.2888-1.6578 1.6578-5.3031 1.5037-6.7892-0.28701zm334.99-3.4778v-4.0352l16.25-0.0181c21.195-0.0237 36.065-0.97627 36.985-2.3693 0.4041-0.6119 0.7416 1.565 0.75 4.8375 0.0119 4.6278-0.2514 5.6833-1.1847 4.75-1.5551-1.5551-47.987-1.7055-50.866-0.16482-1.7639 0.94396-1.9343 0.67959-1.9343-3zm66.244-8.2852c0.4787-1.4574 7.756-2.3272 7.756-0.927 0 1.0081-3.3164 2.1409-6.3333 2.1634-1.0228 8e-3 -1.6518-0.53898-1.4227-1.2364zm-397.49-10.466c-4.4077-0.66771-3.1693-2.2838 1.75-2.2838 3.3333 0 4.5 0.38889 4.5 1.5 0 1.4835-0.89225 1.5954-6.25 0.78375zm394.89-10.32c1.4664-1.4664 8.3637-2.4652 8.3637-1.2112 0 1.1502-3.3084 2.2135-6.95 2.2338-1.6906 9e-3 -2.1288-0.30758-1.4137-1.0227zm-389.37-10.335c-2.7155-0.94756-4.4839-2.6288-2.765-2.6288 4.0688 0 5.2261 0.17358 6.4916 0.97367 2.6222 1.6578-0.16782 2.897-3.7267 1.6552zm312.64-10.707-1.4763-3.1173 22.922-11.568c15.153-7.6471 23.085-12.19 23.402-13.402 0.7425-2.8395 2.021-2.1963 4.2261 2.1259 2.1691 4.2519 2.6043 6.5188 1.0693 5.5702-0.523-0.32325-11.436 4.707-24.25 11.178l-23.858 12.048c-0.3076 0.15534-1.2236-1.1204-2.0356-2.8349zm72.095 0.70283c0-1.2366 4.0331-2.625 7.625-2.625 2.5138 0 1.4203 1.7885-1.7742 2.9022-4.1949 1.4623-5.8508 1.3839-5.8508-0.27717zm-308-4.2036c0-1.8921-11.292-15.939-14.348-17.848-1.1838-0.73945-7.7357-2.585-14.56-4.1011-9.7188-2.1592-12.804-2.5091-14.236-1.6146-1.0058 0.62814-2.0788 1.1421-2.3845 1.1421-0.69622 0 4.3737-8.9841 6.1874-10.964 1.1718-1.2794 1.3412-1.2579 1.3412 0.16985 0 1.2037 1.8298 2.0503 6.9474 3.2143 10.688 2.431 10.786 2.3476 5.3689-4.5706-2.649-3.3829-5.6038-6.3604-6.5664-6.6166-2.2119-0.58888-2.2-0.70493 0.43806-4.2731 2.2483-3.041 4.1468-3.9957 3.2384-1.6285-0.28091 0.73204 3.1432 5.7945 7.6091 11.25 7.8016 9.5302 8.3571 9.9859 14.171 11.625 3.328 0.93852 9.4805 2.2592 13.672 2.9348s7.7675 1.329 7.9462 1.4518-0.89507 2.0669-2.3862 4.3201c-2.2112 3.3413-2.9164 3.8367-3.8249 2.6869-1.012-1.2809-9.5296-3.6001-13.222-3.6001-1.0083 0-0.0833 1.8262 2.786 5.5 2.3626 3.025 4.864 5.5 5.5587 5.5 1.6656 0 1.5963 0.62747-0.45244 4.0957-1.8912 3.2016-3.2844 3.7639-3.2844 1.3257zm230.99-5.4293c-1.2169-1.709-2.051-3.247-1.8535-3.4178 0.5798-0.50143 30.742-17.915 38.107-22.001 3.7113-2.0587 7.165-4.4887 7.675-5.3999 1.0896-1.9471 1.0061-2.0222 4.5219 4.0697l2.7374 4.7432-2.8411-0.54721c-2.316-0.44608-6.6296 1.606-23.341 11.104-11.275 6.4079-21.016 12.305-21.647 13.104-0.9632 1.2207-1.5001 0.95625-3.359-1.6543zm-302.89-0.88498c-1.8676-0.99499-2.9543-2.0818-2.415-2.4151 1.5274-0.94397 8.3106 1.4849 8.3106 2.9758 0 1.7888-1.8084 1.6169-5.8956-0.56068zm372.9-8.0814c0-1.174 5.2776-4.0257 7.4503-4.0257 2.6419 0 1.7131 1.5516-1.9842 3.3148-4.0281 1.9208-5.4661 2.1079-5.4661 0.71089zm-363.75-10.775c-1.7875-0.88756-3.25-2.2446-3.25-3.0156s0.3375-1.2497 0.75-1.0636 2.4441 0.99136 4.5146 1.7895 3.6174 1.8928 3.4375 2.4325c-0.53478 1.6043-2.0114 1.5657-5.4521-0.14278zm355.95-6.4509c-1.9093-1.9093-1.3954-5.5497 1.0225-7.2433 1.2224-0.85618 2.5402-1.5567 2.9286-1.5567 1.5636 0 3.8489 3.2871 3.8489 5.5362 0 3.665-5.2162 5.8476-7.8 3.2638zm-347.63-9.3714c-0.86429-0.86428-1.5714-2.4071-1.5714-3.4286 0-2.1298 2.5352-5 4.4164-5 1.7285 0 4.5836 3.2839 4.5836 5.272 0 1.4922-3.5254 4.728-5.1511 4.728-0.38833 0-1.4132-0.70714-2.2775-1.5714zm335.89-9.4951c-0.3626-0.58659-0.5016-1.1823-0.309-1.3238 3.6775-2.7026 6.8857-4.6096 7.7545-4.6096 2.303 0 0.951 2.9262-2.2724 4.9184-3.8678 2.3904-4.2738 2.4701-5.1731 1.015zm-321.71-10.417c-2.5601-2.2533-3.6096-4.5164-2.0944-4.5164 1.4973 0 7.336 5.2046 6.8041 6.0652-0.85913 1.3901-1.6758 1.1216-4.7097-1.5488zm309.25-6.4275c0-1.1093 5.7875-6.0889 7.0767-6.0889 1.8619 0 0.8504 2.9122-1.7116 4.9274-2.747 2.1608-5.3651 2.7276-5.3651 1.1615zm-130.06-0.74142c-1.3742-0.37072-1.414-1.2751-0.3356-7.634 0.6728-3.9674 1.9167-12.838 2.7642-19.713 3.0545-24.779 3.0113-23.917 1.2314-24.6-3.5454-1.3605-4.262 1.1563-5.5083 19.344-0.6692 9.7658-1.3013 21.014-1.4047 24.996-0.182 7.0077-0.2683 7.24-2.688 7.2347-4.4584-0.01-4.6947-0.7483-3.8312-11.975 0.4441-5.775 0.9253-17.238 1.0694-25.473 0.2302-13.165 0.0652-15.012-1.3668-15.3-2.6806-0.53891-4.5 2.2106-8.8854 13.427-4.7729 12.207-4.7921 11.682 0.9882 27.021 2.2142 5.8758 4.0258 10.828 4.0258 11.004s-1.8 0.32085-4 0.32085c-3.3079 0-4-0.33959-4-1.9625 0-2.6534-3.9415-13.038-4.9487-13.038-0.964 0-4.8952 8.8789-5.3895 12.172-0.2729 1.8187-1.08 2.3991-3.6921 2.6548-2.6576 0.26019-3.1311 0.0552-2.3096-1 0.56831-0.73 2.894-6.3472 5.1682-12.483l4.1349-11.155-4.6303-13.595c-3.2205-9.4554-5.0925-13.595-6.1483-13.595-3.2696 0-0.3932-0.81416 5.0976-1.4429 5.7811-0.66195 5.7821-0.66159 5.1586 1.8226-0.6953 2.7705 3.3417 16.873 4.6064 16.091 1.4933-0.92296 6.144-14.53 5.521-16.154-0.5684-1.4812 0.7422-1.5726 14.199-0.99014 8.154 0.35293 16.251 0.92686 17.994 1.2754 3.0292 0.60585 3.0874 0.70543 1.3227 2.2657-1.4889 1.3164-2.3651 5.6931-4.5309 22.632-3.9108 30.586-3.4786 28.518-5.9312 28.384-1.1672-0.0638-2.8237-0.30524-3.6812-0.53653zm-165.25-8.1456c-2.6259-2.7409-3.5156-5.2019-1.8805-5.2019 0.4471 0 2.1091 1.353 3.6934 3.0066 1.9203 2.0044 2.5472 3.3399 1.8805 4.0066s-1.8978 0.0629-3.6934-1.8113zm281.81-5.1962c-0.8266-1.3375 4.1765-7.0056 6.1836-7.0056 2.1243 0 1.5329 1.3945-2.0744 4.8907-2.2949 2.2244-3.6201 2.9064-4.1092 2.1149zm-266.44-9.91c-2.3288-3.2705-2.5343-4.0956-1.0201-4.0956 1.404 0 5.8927 5.2869 5.3012 6.244-0.88003 1.4239-2.2142 0.75441-4.2811-2.1483zm16.99-12.722c-1.1767-1.9943-1.8558-3.9068-1.5091-4.25 0.77747-0.7697 5.4392 4.9021 5.446 6.626 9e-3 2.3445-1.7938 1.2562-3.9369-2.376zm217.28-3.975c-1.8888-2.8826-0.978-5.6334 2.0633-6.2316 4.1552-0.8173 6.4099 5.7908 2.6605 7.7974-2.6592 1.4232-2.7948 1.3782-4.7238-1.5658zm-200.77-3.9704c-2.2202-2.2202-1.9746-6.1424 0.46634-7.4488 5.0296-2.6917 9.4172 3.6139 5.0022 7.1889-2.7608 2.2356-3.4596 2.2688-5.4685 0.25985zm182.43-5.1786c9e-3 -1.7164 4.3352-7.6573 4.7334-6.4994 0.6194 1.8014-1.9968 7.2494-3.4812 7.2494-0.6908 0-1.2542-0.3375-1.2522-0.75zm-162.03-6.8421c-1.7685-5.3587 0.3249-6.6284 2.3957-1.453 1.9861 4.9637 1.9895 5.0451 0.21226 5.0451-0.78234 0-1.9559-1.6164-2.6079-3.5921zm142.8 0.0302c-0.997-0.99702 2.4842-8.4381 3.9477-8.4381 1.4222 0 1.2881 1.0938-0.8279 6.75-0.8207 2.1937-1.9844 2.8234-3.1198 1.6881zm-122.67-5.5874c-1.4623-4.1949-1.3839-5.8508 0.27717-5.8508 1.2366 0 2.625 4.0331 2.625 7.625 0 2.5138-1.7885 1.4204-2.9022-1.7742zm102.9-1.8037c0-2.5179 2.0604-7.047 3.2058-7.047 0.8098 0 0.1042 6.4957-0.8962 8.25-0.8424 1.4774-2.3096 0.71322-2.3096-1.203zm-82.377-1.5866c-0.95316-2.4839-0.74118-7.4605 0.31777-7.4605 1.3464 0 1.814 1.0403 2.21 4.9159 0.36558 3.5781-1.4355 5.3911-2.5278 2.5446zm61.716-2.2105c0.2609-0.9625 0.7498-2.9875 1.0864-4.5 0.8735-3.9252 2.9868-3.5648 2.1989 0.375-0.3438 1.7188-0.625 3.7438-0.625 4.5s-0.7053 1.375-1.5674 1.375c-1.0068 0-1.3977-0.62587-1.0929-1.75zm-41.34-3.75c0-3.3333 0.3889-4.5 1.5-4.5s1.5 1.1667 1.5 4.5-0.3889 4.5-1.5 4.5-1.5-1.1667-1.5-4.5zm19.2 3.3c-2.805-2.805-0.6917-7.8 3.3-7.8 4.3487 0 5.9431 4.384 2.6713 7.345-2.1595 1.9543-4.3083 2.118-5.9713 0.45499z"/>
 </g>
</svg>
